<svg width="90" height="70" viewBox="0 0 90 70" fill="none" xmlns="http://www.w3.org/2000/svg">
<path d="M0 0H90V70H0V0Z" fill="white"/>
<path fill-rule="evenodd" clip-rule="evenodd" d="M19.6176 21.6623C18.68 22.8838 17.1798 23.8472 15.6796 23.7096C15.4921 22.058 16.2266 20.3032 17.086 19.2193C18.0236 17.9634 19.6644 17.0688 20.9927 17C21.149 18.7204 20.5395 20.4064 19.6176 21.6623ZM20.977 24.0364C19.6554 23.9527 18.4495 24.474 17.4754 24.8951C16.8486 25.1661 16.3178 25.3955 15.914 25.3955C15.4608 25.3955 14.9081 25.1538 14.2875 24.8824C13.4743 24.5267 12.5446 24.1201 11.5697 24.1396C9.33508 24.1741 7.25672 25.5676 6.11596 27.7869C3.77194 32.2255 5.50652 38.7975 7.7724 42.4103C8.88191 44.1995 10.2102 46.1608 11.9604 46.092C12.7304 46.06 13.2842 45.8012 13.8575 45.5334C14.5174 45.2251 15.2029 44.9049 16.2734 44.9049C17.3067 44.9049 17.9623 45.2168 18.5916 45.5162C19.19 45.8009 19.7646 46.0743 20.6176 46.0576C22.4303 46.0231 23.5711 44.2683 24.6806 42.4791C25.8779 40.5588 26.4041 38.6847 26.4839 38.4003L26.4933 38.3674C26.4914 38.3653 26.4766 38.3578 26.4505 38.3446C26.0502 38.1429 22.991 36.601 22.9616 32.4664C22.9322 28.996 25.3882 27.2376 25.7748 26.9608L25.7748 26.9608C25.7983 26.944 25.8142 26.9326 25.8213 26.9267C24.2587 24.3805 21.8209 24.1052 20.977 24.0364ZM33.5254 45.8682V19.0472H42.6671C47.3864 19.0472 50.6836 22.6256 50.6836 27.8556C50.6836 33.0856 47.3238 36.6985 42.542 36.6985H37.3071V45.8682H33.5254ZM37.3069 22.5569H41.6668C44.9484 22.5569 46.8236 24.4838 46.8236 27.873C46.8236 31.2621 44.9484 33.2062 41.6512 33.2062H37.3069V22.5569ZM63.1693 42.6511C62.1692 44.75 59.9658 46.0747 57.5905 46.0747C54.0745 46.0747 51.6211 43.7694 51.6211 40.2942C51.6211 36.8534 53.9964 34.8749 58.3875 34.5824L63.1068 34.2728V32.7932C63.1068 30.6083 61.8098 29.4212 59.497 29.4212C57.5905 29.4212 56.1997 30.5051 55.9185 32.1567H52.5118C52.6212 28.6815 55.5903 26.1525 59.6064 26.1525C63.935 26.1525 66.7478 28.6471 66.7478 32.518V45.8683H63.2474V42.6511H63.1693ZM58.6065 42.8921C56.5907 42.8921 55.3093 41.8255 55.3093 40.1911C55.3093 38.5051 56.5438 37.5245 58.9035 37.3696L63.1071 37.0771V38.5911C63.1071 41.1029 61.1693 42.8921 58.6065 42.8921ZM78.3586 46.9176C76.8428 51.6143 75.1082 53.1627 71.4203 53.1627C71.139 53.1627 70.2014 53.1283 69.9826 53.0594V49.8423C70.217 49.8767 70.7952 49.9111 71.0921 49.9111C72.7642 49.9111 73.7018 49.1369 74.28 47.1241L74.6238 45.937L68.2168 26.4104H72.1704L76.624 42.2553H76.7021L81.1558 26.4104H85L78.3586 46.9176Z" fill="black"/>
</svg>
