<svg width="90" height="70" viewBox="0 0 90 70" fill="none" xmlns="http://www.w3.org/2000/svg">
<path d="M0 0H90V70H0V0Z" fill="#0060AF"/>
<path fill-rule="evenodd" clip-rule="evenodd" d="M16.7879 41.5341C16.7879 40.5083 16.7987 37.7666 16.7741 37.4288C16.7956 33.3491 13.9058 30.4713 12.0801 30.6956C10.8168 30.8081 9.75788 31.3369 9.18964 32.858C8.66253 34.2756 9.13381 36.1611 10.8855 36.6036C12.7584 37.0787 13.8524 37.4741 14.644 38.0318C15.6139 38.7146 16.4057 40.0192 16.4267 41.5357" fill="white"/>
<path fill-rule="evenodd" clip-rule="evenodd" d="M16.0051 41.5357C16.0112 40.2209 15.2963 39.0583 14.3619 38.4335C13.533 37.8813 12.4203 37.5187 10.6251 37.0512C10.0702 36.9055 9.48978 36.5818 9.31008 36.1693C8.83474 36.6609 8.7484 37.7663 8.83203 38.4124C8.92922 39.1597 9.78023 40.3917 11.0616 40.44C11.8441 40.4722 12.8335 40.2671 13.3079 40.1636C14.1263 39.9822 15.4213 40.5084 15.6274 41.5341" fill="white"/>
<path fill-rule="evenodd" clip-rule="evenodd" d="M17.4498 24.3373C15.277 24.3373 13.4004 25.808 13.407 28.3529C13.4138 30.493 15.0905 31.6387 15.689 32.457C16.5931 33.6901 17.0825 35.1497 17.1331 37.3831C17.1729 39.1605 17.1709 40.9157 17.1797 41.5377H17.6591C17.651 40.8869 17.6293 39.0236 17.6539 37.3281C17.6864 35.0941 18.1934 33.6901 19.098 32.457C19.7017 31.6387 21.3768 30.493 21.3805 28.3529C21.3888 25.808 19.513 24.3373 17.3424 24.3373" fill="white"/>
<path fill-rule="evenodd" clip-rule="evenodd" d="M18.0012 41.5341C18.0012 40.5083 17.9899 37.7666 18.0141 37.4288C17.9928 33.3491 20.8808 30.4713 22.708 30.6956C23.9713 30.8081 25.0289 31.3369 25.599 32.858C26.1254 34.2756 25.6516 36.1611 23.9022 36.6036C22.0279 37.0787 20.9355 37.4741 20.1419 38.0318C19.1731 38.7146 18.4367 40.0192 18.4141 41.5357" fill="white"/>
<path fill-rule="evenodd" clip-rule="evenodd" d="M18.7835 41.5357C18.7767 40.2209 19.4914 39.0583 20.4231 38.4335C21.2556 37.8813 22.3695 37.5187 24.163 37.0512C24.7191 36.9055 25.2988 36.5818 25.4754 36.1693C25.953 36.6609 26.0393 37.7663 25.9555 38.4124C25.8565 39.1597 25.0075 40.3917 23.7284 40.44C22.9463 40.4722 21.9515 40.2671 21.4791 40.1636C20.6638 39.9822 19.3653 40.5084 19.1583 41.5341" fill="white"/>
<path fill-rule="evenodd" clip-rule="evenodd" d="M19.4536 45.7804L19.1758 43.6981L19.8469 43.5937C20.0101 43.5709 20.209 43.6002 20.2885 43.705C20.3765 43.8148 20.4034 43.9055 20.4203 44.0493C20.4458 44.2275 20.3957 44.4331 20.2004 44.5356V44.5419C20.4183 44.5419 20.55 44.7027 20.5885 44.9741C20.5939 45.0317 20.6106 45.1699 20.5939 45.2855C20.5496 45.5604 20.39 45.649 20.1201 45.6878L19.4536 45.7804ZM19.8856 45.4078C19.9652 45.396 20.0458 45.3915 20.1089 45.3502C20.2056 45.2855 20.1968 45.1472 20.1833 45.0442C20.1498 44.8185 20.0924 44.7324 19.8589 44.7679L19.712 44.7911L19.8051 45.4192L19.8856 45.4078ZM19.7451 44.4453C19.834 44.4307 19.9542 44.4195 20.0044 44.333C20.0308 44.2752 20.0643 44.2293 20.0421 44.1008C20.0148 43.9486 19.9657 43.8539 19.777 43.8906L19.6014 43.9196L19.6708 44.4532L19.7451 44.4453Z" fill="white"/>
<path fill-rule="evenodd" clip-rule="evenodd" d="M22.3607 44.5281C22.3659 44.5669 22.372 44.61 22.3742 44.6488C22.4285 45.0284 22.3607 45.343 21.9448 45.4295C21.3297 45.5509 21.212 45.159 21.1039 44.61L21.0463 44.3128C20.9615 43.7878 20.9251 43.3901 21.5246 43.2674C21.8625 43.2043 22.0858 43.3423 22.1787 43.6876C22.1932 43.7391 22.2113 43.7899 22.218 43.8419L21.8503 43.9198C21.8078 43.7899 21.7515 43.5581 21.5861 43.5776C21.289 43.6145 21.3871 43.9936 21.4177 44.1523L21.5282 44.7223C21.5614 44.8947 21.6274 45.1701 21.8844 45.117C22.093 45.0741 22.002 44.7404 21.9834 44.6035" fill="white"/>
<path fill-rule="evenodd" clip-rule="evenodd" d="M22.9509 45.1582L22.8239 43.0033L23.3177 42.8485L24.3536 44.7227L23.9646 44.8422L23.7192 44.3659L23.2872 44.499L23.343 45.0406L22.9509 45.1582ZM23.251 44.1511L23.5631 44.0583L23.1486 43.1864L23.251 44.1511Z" fill="white"/>
<path fill-rule="evenodd" clip-rule="evenodd" d="M10.747 43.5289C10.9016 43.021 11.0399 42.6468 11.6301 42.8129C11.9458 42.9036 12.1416 43.0463 12.1323 43.4228C12.1307 43.5066 12.1038 43.5922 12.0862 43.6748L11.7189 43.5709C11.7671 43.3627 11.7976 43.1978 11.548 43.1189C11.2596 43.0377 11.1893 43.3968 11.1495 43.5518L11.0001 44.1165C10.9527 44.2843 10.8957 44.5615 11.1495 44.6332C11.3593 44.691 11.4863 44.4799 11.5623 44.1713L11.3055 44.1012L11.3943 43.7746L11.9985 43.9739L11.7117 45.0627L11.4337 44.9852L11.4963 44.755H11.4884C11.3602 44.9434 11.2042 44.9632 11.0675 44.936C10.4633 44.7685 10.5264 44.3632 10.6706 43.8217" fill="white"/>
<path fill-rule="evenodd" clip-rule="evenodd" d="M12.9957 44.4485L12.8137 45.3343L12.4042 45.2436L12.8406 43.1752L13.5388 43.3369C13.9475 43.4276 14.0709 43.6141 14.0131 43.9988C13.9801 44.2195 13.8741 44.457 13.6152 44.4378L13.6125 44.4343C13.8313 44.5127 13.8499 44.6262 13.8117 44.8218C13.7952 44.9053 13.6815 45.4106 13.7599 45.4923L13.7626 45.5545L13.3388 45.4408C13.3212 45.3009 13.3813 45.0489 13.405 44.9092C13.4288 44.7858 13.467 44.6118 13.3449 44.5466C13.2495 44.4942 13.2138 44.4967 13.1058 44.4714L12.9957 44.4485ZM13.0655 44.1281L13.3413 44.2044C13.5088 44.2295 13.6019 44.1404 13.6349 43.9325C13.6647 43.742 13.6261 43.6678 13.4758 43.6309L13.1801 43.5692L13.0655 44.1281Z" fill="white"/>
<path fill-rule="evenodd" clip-rule="evenodd" d="M15.6228 43.6371L16.0278 43.6854L15.8533 45.1396C15.7686 45.6007 15.595 45.802 15.1009 45.7392C14.5982 45.6737 14.4789 45.4389 14.5091 44.9742L14.685 43.5214L15.0932 43.5692L14.918 44.9895C14.8993 45.1438 14.8647 45.3724 15.1319 45.4002C15.369 45.4188 15.4228 45.2573 15.4497 45.0568" fill="white"/>
<path fill-rule="evenodd" clip-rule="evenodd" d="M16.4742 45.8187L16.5963 43.7394L17.3743 43.7739C17.7423 43.7927 17.8383 44.1009 17.827 44.395C17.8162 44.5739 17.7619 44.7737 17.61 44.882C17.4855 44.9741 17.3252 44.996 17.177 44.9885L16.9234 44.9741L16.8727 45.8456L16.4742 45.8187ZM16.9347 44.657L17.1409 44.6689C17.3084 44.6751 17.4193 44.6072 17.4338 44.3547C17.4422 44.1125 17.3527 44.0712 17.1357 44.0615L16.9725 44.0557L16.9347 44.657Z" fill="white"/>
<path fill-rule="evenodd" clip-rule="evenodd" d="M71.3618 26.3469L68.2688 32.1096C67.1013 31.1363 65.676 30.4203 63.8571 30.4203C59.5528 30.4203 57.8042 33.7135 57.8042 36.0334C57.8042 37.7556 58.9027 40.2962 62.7326 40.2962C64.3404 40.2962 66.6255 39.1484 67.2833 38.6259L64.2244 45.3116C62.7663 45.6102 62.2871 45.7953 61.053 45.8345C54.1979 46.0445 51.4281 41.7219 51.4299 37.3053C51.4347 31.4662 56.4919 24.3653 64.8761 24.3653C65.3896 24.3653 66.018 24.5479 66.5552 24.75L67.0984 24.037" fill="white"/>
<path fill-rule="evenodd" clip-rule="evenodd" d="M84.1241 24.218L85 45.162H78.4817L78.4781 41.5702H74.0332L72.5706 45.162H65.5012L72.892 30.2062L71.2254 30.1951L74.3917 24.218H84.1241ZM78.4356 30.6253L75.9228 36.7172H78.5115L78.4356 30.6253Z" fill="white"/>
<path fill-rule="evenodd" clip-rule="evenodd" d="M47.3149 24.218C50.5428 24.2365 52.3669 26.0351 52.3669 28.6329C52.3669 31.0282 50.4431 33.1481 48.3313 34.2444C50.5055 35.065 50.6936 37.0789 50.6936 38.5034C50.6936 41.9458 47.3289 45.1619 42.9549 45.1619H33.4158L37.1367 30.4145L35.6083 30.4055L38.7327 24.218C38.7327 24.218 44.69 24.1994 47.3149 24.218V24.218ZM44.1479 32.7096C44.8156 32.7096 45.9946 32.5361 46.2893 31.2096C46.6123 29.7695 45.5059 29.7308 44.9752 29.7308L43.0788 29.7224L42.4174 32.7096H44.1479ZM41.4668 36.4107L40.5936 39.8528H42.8268C43.7052 39.8528 44.9024 39.405 45.1958 38.2848C45.4856 37.1617 44.6486 36.4107 43.7734 36.4107H41.4668Z" fill="white"/>
<path fill-rule="evenodd" clip-rule="evenodd" d="M17.5357 47.7355C14.2327 47.7355 10.8386 46.9005 7.44882 45.249L7.36564 45.207L7.32586 45.12C5.80467 41.824 5 38.2193 5 34.6922C5 31.1703 5.77167 27.7196 7.29376 24.428L7.3358 24.3405L7.42056 24.2969C10.5563 22.7721 13.9293 22 17.4498 22C20.7288 22 24.2311 22.8596 27.576 24.4906L27.6616 24.5299L27.7014 24.619C29.2515 27.9757 30.0691 31.5798 30.0691 35.0486C30.0691 38.5035 29.2841 41.9574 27.7319 45.3121L27.6912 45.4L27.6049 45.4409C24.5169 46.9413 21.0348 47.7355 17.5357 47.7355M7.76253 44.797C11.0553 46.3872 14.3398 47.19 17.5357 47.19C20.9243 47.19 24.2942 46.4297 27.2943 44.9884C28.7845 41.7377 29.5399 38.3921 29.5399 35.0486C29.5399 31.6911 28.7515 28.1991 27.2602 24.941C24.0141 23.3746 20.6241 22.544 17.4498 22.544C14.0417 22.544 10.7748 23.286 7.73405 24.75C6.27435 27.9402 5.53138 31.2832 5.53138 34.6922C5.53138 38.1072 6.30328 41.6008 7.76253 44.797Z" fill="white"/>
</svg>
