<svg width="90" height="70" viewBox="0 0 90 70" fill="none" xmlns="http://www.w3.org/2000/svg">
<path d="M0 0H90V70H0V0Z" fill="white"/>
<path fill-rule="evenodd" clip-rule="evenodd" d="M12.5044 42.0901L15.8354 46.5817H7.5885L12.5044 42.0901ZM11.457 40.7027L5.00584 46.5954L5.0032 32.1029L11.457 40.7027ZM26.9789 26.1095C26.9789 26.1095 25.5628 25.3795 23.9175 25.4861C22.0366 25.6067 20.463 26.3922 19.5584 27.4286C18.9891 28.0797 18.3599 28.8741 18.0438 29.7367C17.5854 30.9847 17.4875 32.6336 17.4875 32.6336C17.4875 32.6336 16.8297 32.0257 16.0055 30.2541C15.0471 28.1935 14.785 26.9453 14.6551 25.5213C14.5395 24.2716 14.721 23.0359 14.721 23.0359H26.9789V26.1095ZM26.979 30.2181V39.3561C26.979 39.3561 26.217 39.6748 25.5954 39.6748C24.9738 39.6748 23.9152 39.5745 22.6858 38.8385C21.4653 38.1085 20.7897 37.2252 20.266 36.4249C19.7349 35.6109 19.2963 34.4824 19.1659 33.6692C19.0612 33.0186 18.9482 31.396 19.5585 30.0771C19.8896 29.3614 20.7784 28.1346 22.4895 28.0649C23.8843 28.0066 24.6577 28.4059 25.3666 28.8295C26.7156 29.6372 26.979 30.2181 26.979 30.2181V30.2181ZM13.6315 38.7144L15.8425 36.7075C15.1379 35.7274 14.9517 35.3581 14.164 34.0927C13.3575 32.7976 12.6819 31.3728 12.1042 29.7009C11.4789 27.8899 11.3279 26.8732 11.3969 25.5212C11.4834 23.8011 11.8426 23.0359 11.8426 23.0359H5L5.00317 27.0515C5.00317 27.0515 10.241 34.1991 13.6315 38.7144V38.7144ZM19.9491 46.5751H26.979V40.9937C26.979 40.9937 25.2353 41.8646 24.1019 41.9349C23.4271 41.9778 22.7722 42.0061 21.7155 41.7C20.5408 41.3601 19.8734 41.0288 18.7847 40.051C17.9102 39.2667 16.9104 38.1085 16.9104 38.1085L14.6864 40.1276C15.7182 41.5019 16.4803 42.5023 16.7136 42.7715C17.7166 43.9257 18.1417 44.3499 18.8172 44.7612C19.4925 45.1734 21.7488 45.1511 21.7488 45.1511L19.9491 46.5751Z" fill="#E94E0F"/>
<path fill-rule="evenodd" clip-rule="evenodd" d="M80.146 41.6103C80.146 43.2275 80.3463 45.8857 78.683 46.5329V46.6406H85.0001V46.5329C83.3379 45.8503 83.5373 43.2275 83.5373 41.6103V28.0655C83.5373 26.4491 83.3379 23.7903 85.0001 23.1078V23H78.683V23.1078C80.3788 23.7903 80.146 26.4131 80.146 28.0655V41.6103ZM56.9826 28.0655L68.387 43.6945C69.8494 45.742 70.8808 46.9282 73.2413 47.7899V27.6345C73.2413 25.6228 73.2413 24.1853 74.9706 23.1078V23H69.1183V23.1078C70.8808 24.1853 70.8469 25.6228 70.8469 27.6345V41.2512L58.6786 24.6524L58.2126 23.9338C57.9803 23.6466 57.8475 23.467 57.7145 23.036V23H52.8594V23.1078C54.5885 24.1853 54.5885 25.6228 54.5885 27.6345V41.9704C54.5885 43.9818 54.5885 45.4187 52.8269 46.5329V46.6406H58.712V46.5329C56.9495 45.4187 56.9826 43.9818 56.9826 41.9704V28.0655ZM38.3931 32.5211V25.4793L40.6203 25.2272C42.6155 25.0117 44.7429 26.3054 44.7429 28.7847C44.7429 31.7308 41.6508 32.5211 39.4903 32.5211H38.3931ZM38.3931 43.7663V34.8918L40.72 34.7483C43.646 34.5685 46.7712 36.078 46.7712 39.5629C46.7712 42.976 44.0123 44.3411 41.2852 44.0539L38.3931 43.7663ZM35.0012 41.5745C35.0012 43.2275 35.2009 45.8503 33.538 46.5329V46.6406H39.0242C41.5177 46.6406 44.1451 46.7487 46.472 45.527C48.6997 44.3771 50.4621 42.0056 50.4621 39.239C50.4621 35.7187 48.0345 33.5626 45.042 32.8795C46.9375 31.9817 48.3667 30.6166 48.3667 28.2093C48.3667 25.0117 45.8073 23 41.4188 23H33.538V23.1078C35.2345 23.7903 35.0012 26.4131 35.0012 28.0295V41.5745Z" fill="#005B6A"/>
</svg>
