<svg width="90" height="70" viewBox="0 0 90 70" fill="none" xmlns="http://www.w3.org/2000/svg">
<path d="M0 0H90V70H0V0Z" fill="#00529C"/>
<path fill-rule="evenodd" clip-rule="evenodd" d="M26.6459 30.1932H30.957C32.7028 30.1932 34.0043 31.0343 34.0043 32.805C34.0043 34.1032 33.401 34.8262 32.3529 35.2092V35.2384C33.6021 35.5195 34.2467 36.2574 34.2467 37.5107C34.2467 39.9751 32.272 40.4911 30.5936 40.4911H26.6459V30.1932ZM29.1431 34.2654H29.842C30.6612 34.2654 31.5077 34.044 31.5077 33.1728C31.5077 32.2298 30.7016 32.1404 29.8682 32.1404H29.1431V34.2654ZM29.1431 38.544H29.8829C30.7952 38.544 31.7485 38.3963 31.7485 37.3486C31.7485 36.2282 30.7687 36.124 29.9091 36.124H29.1431V38.544Z" fill="white"/>
<path fill-rule="evenodd" clip-rule="evenodd" d="M37.5251 30.1932H40.587L44.1996 40.4911H41.4597L40.762 38.2934H37.2434L36.5044 40.4911H33.9664L37.5251 30.1932ZM39.0567 32.3182H39.0285L37.8206 36.3463H40.1705L39.0567 32.3182Z" fill="white"/>
<path fill-rule="evenodd" clip-rule="evenodd" d="M44.5474 30.1932H47.7299L50.8994 37.1869H50.9256L50.8859 30.1932H53.1697V40.4911H50.0672L46.7894 33.4539H46.7636L46.8438 40.4911H44.5474V30.1932Z" fill="white"/>
<path fill-rule="evenodd" clip-rule="evenodd" d="M54.0173 30.1932H56.5148V34.3991H56.5418L59.361 30.1932H62.3703L58.9048 34.9879L62.6388 40.4911H59.455L56.5418 35.8146H56.5148V40.4911H54.0173V30.1932Z" fill="white"/>
<path fill-rule="evenodd" clip-rule="evenodd" d="M65.7355 30.1932H70.0466C71.792 30.1932 73.0951 31.0343 73.0951 32.805C73.0951 34.1032 72.4918 34.8262 71.4437 35.2092V35.2384C72.6925 35.5195 73.3371 36.2574 73.3371 37.5107C73.3371 39.9751 71.3628 40.4911 69.6849 40.4911H65.7355V30.1932ZM68.2339 34.2654H68.9316C69.7512 34.2654 70.5965 34.044 70.5965 33.1728C70.5965 32.2298 69.7916 32.1404 68.9594 32.1404H68.2339V34.2654ZM68.2339 38.544H68.9729C69.8852 38.544 70.8393 38.3963 70.8393 37.3486C70.8393 36.2282 69.8591 36.124 68.9995 36.124H68.2339V38.544Z" fill="white"/>
<path fill-rule="evenodd" clip-rule="evenodd" d="M73.8906 30.1932H78.3493C80.0142 30.1932 81.3713 31.0191 81.3713 32.7906C81.3713 34.1625 80.7802 35.0772 79.5719 35.3866V35.4158C80.3759 35.6525 80.4307 36.4338 80.9008 37.6881L81.8144 40.4911H79.2094L78.6718 38.6333C78.1613 36.8627 77.8388 36.419 76.9121 36.419H76.3881V40.4911H73.8906V30.1932ZM76.3882 34.4719H77.0467C77.8523 34.4719 78.8734 34.4419 78.8734 33.2765C78.8734 32.3183 77.9995 32.1404 77.0467 32.1404H76.3882V34.4719Z" fill="white"/>
<mask id="mask0_6_131" style="mask-type:luminance" maskUnits="userSpaceOnUse" x="5" y="25" width="80" height="21">
<path fill-rule="evenodd" clip-rule="evenodd" d="M5 45.6918H85V25H5V45.6918Z" fill="white"/>
</mask>
<g mask="url(#mask0_6_131)">
<path fill-rule="evenodd" clip-rule="evenodd" d="M82.5024 40.4912H84.9999V30.1934H82.5024V40.4912Z" fill="white"/>
<path fill-rule="evenodd" clip-rule="evenodd" d="M20.9458 24.9999H7.87302C6.28623 24.9999 4.99988 26.4481 4.99988 28.2349V28.269V42.4576C4.99988 44.2269 6.26252 45.6652 7.82887 45.6917H20.9389C22.5261 45.6917 23.8129 44.2435 23.8129 42.4576L23.819 28.2349C23.819 26.4481 22.533 24.9999 20.9458 24.9999V24.9999ZM9.42708 44.0338L8.7138 44.0423C7.85051 44.0423 7.15072 43.2632 7.15072 42.3017L7.14663 42.1648V29.0298L7.15113 28.3225C7.18342 27.392 7.8268 26.643 8.66965 26.643H10.1195C11.4332 26.643 12.4989 27.8981 12.4989 29.3791C12.4989 30.1111 12.2377 30.7757 11.8146 31.2589L8.11538 35.3826L11.5824 39.2612C12.0296 39.7673 12.2998 40.4328 12.2998 41.1616C12.2998 42.7481 11.0135 44.0338 9.42708 44.0338V44.0338ZM20.0859 44.0208L13.6218 44.0176C13.6218 44.0176 14.3694 42.2429 14.3694 41.1445C14.3694 39.8054 13.9615 38.6087 13.3234 37.817L11.1124 35.3409L13.3692 32.7794C14.0408 32.0856 14.4871 30.8543 14.4871 29.4519C14.4871 28.3414 14.2075 27.3575 13.7575 26.643H15.3239C16.638 26.643 17.7036 27.8981 17.7036 29.3791C17.7036 30.1111 17.4428 30.7757 17.0198 31.2589L13.3913 35.3395L20.9275 43.7823C20.6888 43.9476 20.3875 44.0208 20.0859 44.0208V44.0208ZM21.6644 41.3848L16.2635 35.3377L18.8358 32.4656C19.3598 31.7466 19.6918 30.663 19.6918 29.4519C19.6918 28.3342 19.4081 27.3265 18.9539 26.6116L20.1054 26.6493C20.9687 26.6493 21.6685 27.4298 21.6685 28.3908L21.6644 41.3848Z" fill="white"/>
</g>
</svg>
