<svg width="90" height="70" viewBox="0 0 90 70" fill="none" xmlns="http://www.w3.org/2000/svg">
<path d="M0 0H90V70H0V0Z" fill="white"/>
<path d="M31.5409 28.0989H31.5134V28.1023C31.5227 28.1011 31.5304 28.1002 31.5409 28.0989Z" fill="#168F8C"/>
<path d="M31.7188 27.7432V50.4773H35.5599V33.4393C35.5599 32.1668 35.072 28.3225 31.7188 27.7432Z" fill="#0CA49D"/>
<path d="M11.3011 46.5211C11.7896 46.5211 12.1889 46.4348 12.4991 46.2624C12.809 46.0898 13.0515 45.8667 13.2269 45.5928C13.4017 45.3188 13.5219 45.0093 13.5877 44.6643C13.6533 44.3198 13.686 43.9696 13.686 43.6146C13.686 43.2088 13.6478 42.8436 13.5711 42.5186C13.4948 42.194 13.3633 41.9204 13.1773 41.6969C12.9915 41.4738 12.7452 41.3012 12.4389 41.1795C12.1326 41.0579 11.746 40.9969 11.2791 40.9969H8.69757V46.5211H11.3011ZM8.69757 32.079V37.5576H10.623C11.0312 37.5576 11.3997 37.5172 11.7279 37.4359C12.0558 37.3546 12.335 37.2128 12.5646 37.0096C12.7942 36.8069 12.9695 36.528 13.0898 36.1727C13.21 35.8177 13.2704 35.3713 13.2704 34.8336C13.2704 34.3061 13.2228 33.8672 13.1281 33.5173C13.0332 33.1671 12.8873 32.8857 12.6905 32.6725C12.4936 32.4594 12.2436 32.3074 11.9412 32.2159C11.6386 32.1246 11.2791 32.079 10.8637 32.079H8.69757ZM10.8637 28.2288C11.9648 28.2288 12.9021 28.3711 13.6752 28.6549C14.448 28.9392 15.0791 29.3397 15.5678 29.8571C16.0562 30.3746 16.4116 31.0038 16.6344 31.7442C16.8566 32.4849 16.9679 33.3117 16.9679 34.2248C16.9679 34.7219 16.9169 35.2014 16.8151 35.6629C16.7128 36.1248 16.5521 36.5557 16.3334 36.9563C16.1146 37.3573 15.8338 37.725 15.4911 38.0599C15.1481 38.3946 14.7363 38.6839 14.255 38.927C15.305 39.2823 16.0818 39.8553 16.585 40.6469C17.0882 41.4381 17.3401 42.463 17.3401 43.7209C17.3401 44.6643 17.2088 45.5423 16.9461 46.3537C16.6836 47.1655 16.2986 47.8731 15.7918 48.4766C15.2851 49.0803 14.6596 49.552 13.9156 49.8919C13.172 50.232 12.3222 50.4017 11.367 50.4017H5V28.2288H10.8637Z" fill="#0CA49D"/>
<path d="M28.4548 32.7336C28.3453 32.9772 28.2307 33.1597 28.1101 33.2815C27.9899 33.4032 27.8349 33.4641 27.6453 33.4641C27.4775 33.4641 27.2971 33.3905 27.1038 33.2434C26.9106 33.0963 26.6916 32.9315 26.4475 32.7489C26.2031 32.5662 25.9241 32.4013 25.6105 32.2542C25.2971 32.1071 24.9396 32.0336 24.5382 32.0336C23.8454 32.0336 23.3295 32.2391 22.9904 32.6501C22.6513 33.0607 22.4816 33.6163 22.4816 34.3164C22.4816 34.7629 22.5839 35.1331 22.7879 35.4271C22.992 35.7215 23.2603 35.9752 23.5923 36.1883C23.924 36.4012 24.3034 36.5967 24.7299 36.7741C25.1565 36.9518 25.5922 37.1496 26.0371 37.3676C26.482 37.5859 26.918 37.842 27.3445 38.136C27.7711 38.4304 28.1505 38.8057 28.4823 39.2622C28.8141 39.7188 29.0821 40.2742 29.2862 40.9286C29.4903 41.5829 29.5926 42.3719 29.5926 43.2949C29.5926 44.32 29.4651 45.2787 29.2099 46.1711C28.9544 47.0641 28.5842 47.8429 28.0993 48.5073C27.6141 49.172 27.0163 49.6942 26.3054 50.0746C25.5942 50.4554 24.7863 50.6455 23.8821 50.6455C23.3862 50.6455 22.8809 50.5744 22.367 50.4326C21.8527 50.2904 21.3551 50.0899 20.8738 49.8311C20.3922 49.5725 19.94 49.2657 19.5172 48.9106C19.0938 48.5556 18.7256 48.1599 18.4121 47.7233L19.506 45.319C19.5938 45.1464 19.7084 45.0021 19.8506 44.8854C19.9928 44.7688 20.1478 44.7104 20.3159 44.7104C20.5343 44.7104 20.7548 44.8067 20.9776 44.9995C21.2 45.1923 21.4516 45.4053 21.7325 45.6387C22.0132 45.8722 22.3358 46.0851 22.7006 46.2779C23.065 46.4706 23.4955 46.567 23.9916 46.567C24.6624 46.567 25.184 46.3614 25.5559 45.9508C25.9277 45.5398 26.1137 44.888 26.1137 43.9952C26.1137 43.4776 26.0114 43.0569 25.8075 42.7319C25.6033 42.4075 25.335 42.1384 25.0035 41.9252C24.6712 41.7123 24.2939 41.5246 23.871 41.3623C23.4481 41.2003 23.014 41.02 22.5693 40.8219C22.1242 40.6242 21.6903 40.3808 21.2675 40.0917C20.8442 39.8025 20.4668 39.4221 20.1354 38.9504C19.8032 38.4785 19.5351 37.8901 19.3311 37.1849C19.127 36.4799 19.0247 35.6099 19.0247 34.575C19.0247 33.7433 19.145 32.9315 19.3858 32.1399C19.6266 31.3487 19.9801 30.6437 20.4469 30.0249C20.9137 29.4062 21.4864 28.9114 22.1644 28.5409C22.8427 28.1707 23.6194 27.9855 24.4947 27.9855C24.9832 27.9855 25.4591 28.0389 25.9225 28.1455C26.3853 28.2518 26.8249 28.4092 27.2406 28.6172C27.6565 28.8252 28.0446 29.0738 28.4056 29.3629C28.7667 29.6521 29.0893 29.9791 29.3737 30.3444L28.4548 32.7336Z" fill="#0CA49D"/>
<path d="M35.9811 19.5493C35.9726 19.3634 35.9574 19.1804 35.9373 19C36.7968 20.234 38.0241 20.9574 39.3534 20.8406C39.9891 20.7845 40.5838 20.541 41.113 20.1528C40.7019 21.1506 40.4887 22.321 40.5449 23.5546C40.6143 25.0816 41.084 26.44 41.8017 27.4477C41.4346 27.3448 41.0521 27.3052 40.6606 27.3399C39.1053 27.4766 37.7928 28.7295 37.0977 30.5016C36.8232 27.8821 35.3628 25.8458 33.5366 25.3977C35.0796 24.3487 36.0962 22.0814 35.9811 19.5493Z" fill="#F9AD3C"/>
<path d="M42.5718 41.406C42.7479 41.406 42.8996 41.378 43.0268 41.3219C43.1542 41.2658 43.2581 41.1875 43.3388 41.0872C43.4215 40.9838 43.482 40.8627 43.5201 40.724C43.5583 40.5823 43.5774 40.4274 43.5774 40.2591C43.5774 39.9314 43.4936 39.6731 43.3259 39.4842C43.1584 39.2922 42.9071 39.1963 42.5718 39.1963H41.5854V41.406H42.5718ZM41.5854 36.4195V38.5851H42.4C42.574 38.5851 42.7246 38.5586 42.8519 38.5054C42.9813 38.4523 43.0873 38.3785 43.17 38.284C43.255 38.1894 43.3175 38.0758 43.3578 37.943C43.3982 37.8071 43.4183 37.6595 43.4183 37.5002C43.4183 37.1252 43.3377 36.8521 43.1764 36.6809C43.0152 36.5066 42.7649 36.4195 42.4254 36.4195H41.5854ZM42.4254 35.7421C42.7055 35.7421 42.9463 35.7803 43.1478 35.8572C43.3515 35.9339 43.518 36.0432 43.6474 36.1849C43.7789 36.3265 43.8754 36.5008 43.937 36.7074C43.9985 36.9111 44.0292 37.1414 44.0292 37.3983C44.0292 37.5548 44.0112 37.7053 43.9751 37.85C43.9411 37.9916 43.8892 38.1246 43.8192 38.2486C43.7492 38.3725 43.6601 38.4848 43.5519 38.5851C43.4458 38.6825 43.3207 38.7623 43.1764 38.8242C43.5117 38.9128 43.763 39.0796 43.9306 39.3246C44.1002 39.5668 44.1852 39.8856 44.1852 40.2812C44.1852 40.5498 44.1491 40.7949 44.0769 41.0163C44.007 41.2377 43.903 41.4281 43.7651 41.5877C43.6293 41.747 43.4618 41.871 43.2624 41.9595C43.063 42.0453 42.836 42.0879 42.5814 42.0879H40.9713V35.7421H42.4254Z" fill="#0CA49D"/>
<path d="M47.4447 39.7321L46.7287 37.1502C46.7076 37.0735 46.6852 36.985 46.6619 36.8846C46.6385 36.7812 46.6163 36.6721 46.5952 36.5569C46.5506 36.796 46.505 36.9953 46.4583 37.1547L45.7423 39.7321H47.4447ZM48.7302 42.0879H48.253C48.1977 42.0879 48.1533 42.0689 48.1193 42.0305C48.0853 41.992 48.0599 41.9434 48.0429 41.8842L47.6165 40.3521H45.5705L45.1441 41.8842C45.1314 41.9374 45.1069 41.9847 45.0709 42.026C45.0348 42.0674 44.9902 42.0879 44.9372 42.0879H44.46L46.2832 35.7421H46.907L48.7302 42.0879Z" fill="#0CA49D"/>
<path d="M53.0246 35.7421V42.0879H52.7159C52.6671 42.0879 52.6258 42.0762 52.5918 42.0526C52.56 42.0289 52.5282 41.9891 52.4964 41.933L49.8585 37.1502C49.8627 37.224 49.8659 37.2965 49.8681 37.3672C49.8701 37.4381 49.8712 37.5046 49.8712 37.5665V42.0879H49.3303V35.7421H49.6485C49.676 35.7421 49.6993 35.745 49.7185 35.7509C49.7376 35.7538 49.7546 35.7613 49.7693 35.773C49.7842 35.7819 49.799 35.7967 49.8139 35.8172C49.8288 35.8351 49.8447 35.8587 49.8617 35.8881L52.4996 40.6665C52.4953 40.5896 52.491 40.5158 52.4869 40.4451C52.4847 40.3713 52.4837 40.3019 52.4837 40.237V35.7421H53.0246Z" fill="#0CA49D"/>
<path d="M54.8045 38.523H55.0368C55.1173 38.523 55.1821 38.5098 55.2308 38.4833C55.2797 38.4537 55.3242 38.405 55.3645 38.3372L56.8823 35.9458C56.9248 35.8689 56.9693 35.8159 57.016 35.7863C57.0626 35.7569 57.1199 35.7421 57.1879 35.7421H57.7096L55.9723 38.4744C55.9299 38.5453 55.8884 38.6043 55.8482 38.6516C55.81 38.6958 55.7687 38.7327 55.7241 38.7623C55.7814 38.7888 55.8333 38.8286 55.88 38.8818C55.9267 38.932 55.9723 38.9985 56.0169 39.0811L57.8306 42.0879H57.296C57.2557 42.0879 57.2207 42.085 57.1911 42.0791C57.1634 42.0703 57.139 42.0585 57.1179 42.0437C57.0966 42.026 57.0775 42.0068 57.0606 41.9861C57.0457 41.9626 57.0309 41.9359 57.016 41.9065L55.444 39.3867C55.4017 39.3129 55.3561 39.2612 55.3072 39.2316C55.2584 39.1992 55.1842 39.183 55.0845 39.183H54.8045V42.0879H54.1903V35.7421H54.8045V38.523Z" fill="#0CA49D"/>
<path d="M62.3646 36.7342C62.3455 36.7786 62.3243 36.8124 62.3009 36.836C62.2798 36.8568 62.2533 36.8672 62.2214 36.8672C62.1854 36.8672 62.143 36.842 62.0941 36.7918C62.0453 36.7417 61.9839 36.6869 61.9096 36.6279C61.8375 36.566 61.7494 36.5099 61.6454 36.4597C61.5436 36.4094 61.4195 36.3844 61.2732 36.3844C61.1353 36.3844 61.0134 36.4109 60.9073 36.4642C60.8033 36.5143 60.7152 36.5837 60.6431 36.6723C60.5731 36.7607 60.5201 36.8656 60.4841 36.9867C60.448 37.1047 60.4299 37.2331 60.4299 37.3719C60.4299 37.5491 60.4607 37.6967 60.5222 37.8149C60.5858 37.93 60.6685 38.0288 60.7705 38.1114C60.8744 38.1942 60.991 38.2665 61.1204 38.3284C61.252 38.3876 61.3857 38.4495 61.5214 38.5144C61.6592 38.5794 61.7929 38.6532 61.9223 38.7358C62.0539 38.8156 62.1706 38.9174 62.2724 39.0414C62.3763 39.1654 62.4591 39.3176 62.5205 39.4977C62.5842 39.6777 62.6159 39.8991 62.6159 40.1619C62.6159 40.4394 62.5821 40.7006 62.5142 40.9456C62.4463 41.1878 62.3466 41.3988 62.215 41.579C62.0857 41.7591 61.9255 41.9008 61.7346 42.0042C61.5457 42.1074 61.3304 42.1591 61.0886 42.1591C60.7916 42.1591 60.5222 42.0853 60.2804 41.9377C60.0386 41.7872 59.8317 41.5848 59.6599 41.3309L59.8381 40.9235C59.855 40.891 59.8752 40.8645 59.8985 40.8438C59.924 40.8203 59.9516 40.8084 59.9813 40.8084C60.0089 40.8084 60.0397 40.8247 60.0735 40.8572C60.1097 40.8866 60.15 40.925 60.1945 40.9723C60.2391 41.0196 60.2899 41.0711 60.3472 41.1272C60.4045 41.1833 60.4691 41.235 60.5414 41.2823C60.6155 41.3294 60.6993 41.3694 60.7927 41.4019C60.886 41.4313 60.991 41.4461 61.1077 41.4461C61.2541 41.4461 61.3846 41.418 61.4992 41.3619C61.6137 41.3059 61.7102 41.2276 61.7886 41.1272C61.8693 41.024 61.9308 40.9014 61.9732 40.7598C62.0156 40.6179 62.0369 40.46 62.0369 40.2858C62.0369 40.094 62.005 39.9376 61.9414 39.8165C61.8799 39.6924 61.7983 39.5891 61.6964 39.5065C61.5946 39.4239 61.4779 39.3545 61.3463 39.2984C61.2148 39.2393 61.0812 39.1802 60.9454 39.1212C60.8097 39.0591 60.676 38.9884 60.5445 38.9086C60.4129 38.8289 60.2963 38.7256 60.1945 38.5986C60.0927 38.4718 60.01 38.3138 59.9463 38.1248C59.8847 37.9329 59.8541 37.6967 59.8541 37.4163C59.8541 37.1918 59.8847 36.9748 59.9463 36.7653C60.01 36.5556 60.1011 36.3696 60.2199 36.2072C60.3409 36.0448 60.4883 35.9149 60.6622 35.8175C60.8383 35.7202 61.0399 35.6714 61.2668 35.6714C61.5214 35.6714 61.7526 35.7275 61.9605 35.8397C62.1706 35.9518 62.3551 36.1142 62.5142 36.3268L62.3646 36.7342Z" fill="#0CA49D"/>
<path d="M65.1061 39.5593V42.0879H64.4889V39.5593L62.8184 35.7421H63.3593C63.4144 35.7421 63.4579 35.7613 63.4898 35.7995C63.5215 35.8351 63.5491 35.8822 63.5725 35.9414L64.6162 38.4079C64.6543 38.5113 64.6894 38.6087 64.7211 38.7002C64.753 38.7888 64.7805 38.8788 64.8039 38.9704C64.8272 38.8788 64.8537 38.7888 64.8834 38.7002C64.9132 38.6087 64.9461 38.5113 64.9821 38.4079L66.0226 35.9414C66.0417 35.8912 66.0682 35.8453 66.1022 35.804C66.1362 35.7626 66.1795 35.7421 66.2326 35.7421H66.7768L65.1061 39.5593Z" fill="#0CA49D"/>
<path d="M69.34 39.7321L68.624 37.1502C68.6028 37.0735 68.5806 36.985 68.5573 36.8846C68.5339 36.7812 68.5116 36.6721 68.4904 36.5569C68.4458 36.796 68.4002 36.9953 68.3536 37.1547L67.6376 39.7321H69.34ZM70.6255 42.0879H70.1482C70.093 42.0879 70.0485 42.0689 70.0146 42.0305C69.9806 41.992 69.9552 41.9434 69.9382 41.8842L69.5118 40.3521H67.4658L67.0393 41.8842C67.0266 41.9374 67.0022 41.9847 66.9662 42.026C66.9301 42.0674 66.8856 42.0879 66.8325 42.0879H66.3552L68.1785 35.7421H68.8022L70.6255 42.0879Z" fill="#0CA49D"/>
<path d="M72.4885 38.8154C72.6666 38.8154 72.8236 38.7859 72.9594 38.7268C73.0972 38.6649 73.2118 38.5792 73.303 38.47C73.3963 38.3578 73.4663 38.2249 73.513 38.0714C73.5597 37.9178 73.583 37.7481 73.583 37.5621C73.583 37.1842 73.494 36.8992 73.3158 36.7074C73.1375 36.5154 72.8703 36.4195 72.5139 36.4195H71.8393V38.8154H72.4885ZM74.595 42.0879H74.0476C73.9352 42.0879 73.8524 42.0274 73.7994 41.9065L72.6157 39.6391C72.5796 39.5682 72.5404 39.518 72.498 39.4886C72.4577 39.4561 72.394 39.4398 72.307 39.4398H71.8393V42.0879H71.2252V35.7421H72.5139C72.8024 35.7421 73.0516 35.7834 73.2617 35.866C73.4717 35.9458 73.6446 36.0623 73.7804 36.2158C73.9182 36.3694 74.0201 36.5554 74.0858 36.7739C74.1516 36.9894 74.1844 37.2315 74.1844 37.5002C74.1844 37.7245 74.159 37.9342 74.1081 38.129C74.0571 38.3237 73.9829 38.4994 73.8853 38.656C73.7899 38.8094 73.6721 38.9408 73.5321 39.05C73.3943 39.1594 73.2372 39.242 73.0612 39.2981C73.1397 39.36 73.2076 39.4501 73.2649 39.5682L74.595 42.0879Z" fill="#0CA49D"/>
<path d="M75.8325 42.0879H75.2152V35.7421H75.8325V42.0879Z" fill="#0CA49D"/>
<path d="M79.4202 39.7321L78.7042 37.1502C78.683 37.0735 78.6608 36.985 78.6375 36.8846C78.6141 36.7812 78.5918 36.6721 78.5706 36.5569C78.526 36.796 78.4804 36.9953 78.4338 37.1547L77.7178 39.7321H79.4202ZM80.7057 42.0879H80.2284C80.1732 42.0879 80.1287 42.0689 80.0948 42.0305C80.0608 41.992 80.0354 41.9434 80.0184 41.8842L79.592 40.3521H77.546L77.1195 41.8842C77.1068 41.9374 77.0824 41.9847 77.0464 42.026C77.0103 42.0674 76.9657 42.0879 76.9127 42.0879H76.4354L78.2587 35.7421H78.8824L80.7057 42.0879Z" fill="#0CA49D"/>
<path d="M85 35.7421V42.0879H84.3827V39.2007H81.9231V42.0879H81.3058V35.7421H81.9231V38.5718H84.3827V35.7421H85Z" fill="#0CA49D"/>
<path d="M41.5886 50.4533H40.9713V44.1073H41.5886V50.4533Z" fill="#0CA49D"/>
<path d="M46.449 44.1073V50.4533H46.1404C46.0917 50.4533 46.0502 50.4416 46.0164 50.418C45.9845 50.3943 45.9527 50.3544 45.9208 50.2984L43.283 45.5156C43.2872 45.5894 43.2904 45.6617 43.2925 45.7326C43.2947 45.8035 43.2957 45.8699 43.2957 45.9319V50.4533H42.7548V44.1073H43.0729C43.1005 44.1073 43.1239 44.1104 43.1429 44.1163C43.162 44.1192 43.179 44.1265 43.1939 44.1384C43.2087 44.1473 43.2236 44.1621 43.2384 44.1826C43.2533 44.2003 43.2692 44.224 43.2861 44.2535L45.924 49.0317C45.9199 48.955 45.9156 48.8812 45.9113 48.8103C45.9092 48.7365 45.9081 48.6672 45.9081 48.6022V44.1073H46.449Z" fill="#0CA49D"/>
<path d="M51.567 47.2826C51.567 47.7579 51.5128 48.1903 51.4047 48.5801C51.2964 48.9698 51.1437 49.3035 50.9464 49.581C50.7492 49.8585 50.5115 50.074 50.2337 50.2275C49.9579 50.378 49.6524 50.4533 49.3173 50.4533H47.6149V44.1073H49.3173C49.6524 44.1073 49.9579 44.1842 50.2337 44.3377C50.5115 44.4882 50.7492 44.7037 50.9464 44.9842C51.1437 45.2618 51.2964 45.5954 51.4047 45.985C51.5128 46.3747 51.567 46.8073 51.567 47.2826ZM50.9337 47.2826C50.9337 46.8929 50.8955 46.5444 50.8192 46.2375C50.7428 45.9304 50.6346 45.6706 50.4945 45.458C50.3546 45.2454 50.1849 45.083 49.9855 44.971C49.7861 44.8587 49.5634 44.8026 49.3173 44.8026H48.2321V49.758H49.3173C49.5634 49.758 49.7861 49.7021 49.9855 49.5898C50.1849 49.4776 50.3546 49.3167 50.4945 49.1071C50.6346 48.8945 50.7428 48.6347 50.8192 48.3277C50.8955 48.0206 50.9337 47.6722 50.9337 47.2826Z" fill="#0CA49D"/>
<path d="M56.6694 47.2827C56.6694 47.758 56.6153 48.1948 56.507 48.5934C56.3989 48.9891 56.2461 49.3301 56.0488 49.6164C55.8516 49.9028 55.614 50.1257 55.3361 50.2851C55.0603 50.4417 54.7549 50.5199 54.4197 50.5199C54.0844 50.5199 53.779 50.4417 53.5032 50.2851C53.2274 50.1257 52.9909 49.9028 52.7937 49.6164C52.5963 49.3301 52.4436 48.9891 52.3355 48.5934C52.2272 48.1948 52.1731 47.758 52.1731 47.2827C52.1731 46.8074 52.2272 46.3719 52.3355 45.9762C52.4436 45.5776 52.5963 45.2353 52.7937 44.9488C52.9909 44.6595 53.2274 44.4352 53.5032 44.2757C53.779 44.1164 54.0844 44.0366 54.4197 44.0366C54.7549 44.0366 55.0603 44.1164 55.3361 44.2757C55.614 44.4352 55.8516 44.6595 56.0488 44.9488C56.2461 45.2353 56.3989 45.5776 56.507 45.9762C56.6153 46.3719 56.6694 46.8074 56.6694 47.2827ZM56.0361 47.2827C56.0361 46.8929 55.998 46.5431 55.9216 46.2331C55.8452 45.9231 55.737 45.6618 55.597 45.4492C55.4569 45.2338 55.2872 45.0685 55.0878 44.9534C54.8884 44.8381 54.6657 44.7806 54.4197 44.7806C54.1757 44.7806 53.9541 44.8381 53.7547 44.9534C53.5553 45.0685 53.3844 45.2338 53.2423 45.4492C53.1023 45.6618 52.9941 45.9231 52.9177 46.2331C52.8413 46.5431 52.8032 46.8929 52.8032 47.2827C52.8032 47.6723 52.8413 48.0222 52.9177 48.3322C52.9941 48.6392 53.1023 48.9005 53.2423 49.116C53.3844 49.3285 53.5553 49.4925 53.7547 49.6076C53.9541 49.7198 54.1757 49.7759 54.4197 49.7759C54.6657 49.7759 54.8884 49.7198 55.0878 49.6076C55.2872 49.4925 55.4569 49.3285 55.597 49.116C55.737 48.9005 55.8452 48.6392 55.9216 48.3322C55.998 48.0222 56.0361 47.6723 56.0361 47.2827Z" fill="#0CA49D"/>
<path d="M61.2468 44.1073V50.4533H60.9381C60.8894 50.4533 60.8479 50.4416 60.8141 50.418C60.7822 50.3943 60.7504 50.3544 60.7186 50.2984L58.0807 45.5156C58.085 45.5894 58.0882 45.6617 58.0902 45.7326C58.0924 45.8035 58.0934 45.8699 58.0934 45.9319V50.4533H57.5525V44.1073H57.8707C57.8983 44.1073 57.9216 44.1104 57.9407 44.1163C57.9597 44.1192 57.9767 44.1265 57.9916 44.1384C58.0064 44.1473 58.0213 44.1621 58.0362 44.1826C58.051 44.2003 58.0669 44.224 58.0839 44.2535L60.7217 49.0317C60.7176 48.955 60.7133 48.8812 60.709 48.8103C60.7069 48.7365 60.7058 48.6672 60.7058 48.6022V44.1073H61.2468Z" fill="#0CA49D"/>
<path d="M65.2253 49.7536L65.2221 50.4533H62.4124V44.1073H65.2221V44.807H63.0296V46.915H64.8052V47.5882H63.0296V49.7536H65.2253Z" fill="#0CA49D"/>
<path d="M68.4178 45.0994C68.3988 45.1436 68.3775 45.1776 68.3542 45.2013C68.333 45.2219 68.3065 45.2322 68.2746 45.2322C68.2386 45.2322 68.1962 45.2072 68.1473 45.1569C68.0986 45.1067 68.0371 45.0522 67.9628 44.9931C67.8907 44.9311 67.8026 44.875 67.6987 44.8248C67.5969 44.7746 67.4727 44.7496 67.3264 44.7496C67.1885 44.7496 67.0666 44.7762 66.9605 44.8292C66.8566 44.8794 66.7685 44.9488 66.6964 45.0374C66.6264 45.126 66.5733 45.2307 66.5373 45.3518C66.5012 45.47 66.4832 45.5983 66.4832 45.7371C66.4832 45.9143 66.5139 46.0619 66.5754 46.1799C66.6391 46.295 66.7218 46.394 66.8237 46.4766C66.9275 46.5593 67.0442 46.6317 67.1736 46.6936C67.3052 46.7526 67.4389 46.8147 67.5746 46.8797C67.7125 46.9446 67.8461 47.0184 67.9755 47.1011C68.1071 47.1808 68.2237 47.2827 68.3256 47.4066C68.4295 47.5306 68.5123 47.6826 68.5738 47.8627C68.6374 48.0428 68.6692 48.2642 68.6692 48.5271C68.6692 48.8046 68.6353 49.0658 68.5674 49.3108C68.4995 49.553 68.3998 49.764 68.2683 49.9441C68.1389 50.1242 67.9787 50.266 67.7879 50.3692C67.599 50.4726 67.3837 50.5243 67.1419 50.5243C66.8448 50.5243 66.5754 50.4505 66.3336 50.3029C66.0918 50.1523 65.8849 49.9501 65.7131 49.6962L65.8913 49.2887C65.9083 49.2563 65.9284 49.2297 65.9518 49.209C65.9772 49.1854 66.0048 49.1736 66.0345 49.1736C66.0621 49.1736 66.0929 49.1898 66.1267 49.2223C66.1629 49.2518 66.2031 49.2903 66.2477 49.3374C66.2923 49.3846 66.3431 49.4363 66.4004 49.4925C66.4577 49.5486 66.5224 49.6003 66.5946 49.6474C66.6687 49.6946 66.7526 49.7346 66.8459 49.7669C66.9393 49.7965 67.0442 49.8113 67.1609 49.8113C67.3073 49.8113 67.4378 49.7832 67.5523 49.7271C67.6669 49.671 67.7634 49.5928 67.8419 49.4925C67.9225 49.3891 67.9841 49.2666 68.0265 49.1248C68.0689 48.9832 68.0901 48.8252 68.0901 48.6511C68.0901 48.4591 68.0582 48.3026 67.9946 48.1816C67.9331 48.0576 67.8514 47.9544 67.7496 47.8716C67.6478 47.7889 67.5311 47.7195 67.3995 47.6634C67.2681 47.6044 67.1344 47.5454 66.9987 47.4864C66.8629 47.4243 66.7292 47.3534 66.5978 47.2738C66.4662 47.1941 66.3495 47.0907 66.2477 46.9638C66.1459 46.8368 66.0632 46.6788 65.9995 46.4899C65.938 46.2981 65.9072 46.0619 65.9072 45.7813C65.9072 45.557 65.938 45.34 65.9995 45.1304C66.0632 44.9209 66.1543 44.7348 66.2731 44.5724C66.3941 44.41 66.5416 44.2801 66.7154 44.1827C66.8915 44.0853 67.0931 44.0366 67.32 44.0366C67.5746 44.0366 67.8058 44.0927 68.0138 44.2048C68.2237 44.317 68.4083 44.4794 68.5674 44.692L68.4178 45.0994Z" fill="#0CA49D"/>
<path d="M70.1582 50.4533H69.5408V44.1073H70.1582V50.4533Z" fill="#0CA49D"/>
<path d="M73.7461 48.0975L73.0301 45.5156C73.009 45.4388 72.9866 45.3504 72.9633 45.2499C72.9399 45.1466 72.9177 45.0373 72.8964 44.9222C72.8519 45.1613 72.8064 45.3606 72.7597 45.5201L72.0437 48.0975H73.7461ZM75.0316 50.4533H74.5544C74.4991 50.4533 74.4547 50.4341 74.4207 50.3957C74.3867 50.3574 74.3613 50.3086 74.3443 50.2496L73.9179 48.7173H71.8719L71.4455 50.2496C71.4328 50.3029 71.4083 50.35 71.3723 50.3913C71.3362 50.4328 71.2916 50.4533 71.2386 50.4533H70.7614L72.5846 44.1073H73.2084L75.0316 50.4533Z" fill="#0CA49D"/>
</svg>
