<svg width="90" height="70" viewBox="0 0 90 70" fill="none" xmlns="http://www.w3.org/2000/svg">
<path d="M0 0H90V70H0V0Z" fill="#108EE9"/>
<path fill-rule="evenodd" clip-rule="evenodd" d="M16.585 22H16.2517C13.4817 22.0635 10.7533 23.2704 8.74167 25.3465C6.38333 27.7239 5.03 31.1884 5 34.6801V35.005C5.05667 38.4241 6.37167 41.8087 8.66167 44.1607C10.69 46.2949 13.47 47.5381 16.2917 47.5889H16.6183C20.4317 47.5417 24.1017 45.2169 26.085 41.6835C27.7817 38.7544 28.3033 35.0703 27.55 31.7111C26.9183 28.8128 25.325 26.1723 23.1183 24.4083C21.2433 22.8838 18.9233 22.0472 16.585 22ZM11.4067 32.3971C12.4833 32.7401 13.6317 32.5314 14.68 32.163C15.2577 31.9556 15.8264 31.7186 16.3951 31.4815C17.3145 31.0982 18.234 30.715 19.1917 30.4571C20.4733 30.1304 21.9133 30.3936 22.94 31.3191C23.1431 31.5316 23.1427 31.8385 23.1422 32.1296V32.1297C23.1421 32.2016 23.142 32.2725 23.145 32.3409C23.1335 33.2776 23.1376 34.2147 23.1417 35.1518V35.1521V35.1521V35.1522V35.1522V35.1523C23.1477 36.5332 23.1537 37.9139 23.11 39.2934C22.9553 39.2218 22.8014 39.1457 22.6474 39.0695L22.6473 39.0695C22.0129 38.7559 21.375 38.4405 20.6617 38.4259C19.1739 38.3369 17.7986 38.8745 16.4207 39.4132C15.2996 39.8516 14.1766 40.2906 12.99 40.3932C11.9133 40.4749 10.7883 40.1972 9.915 39.4912C9.73609 39.2216 9.74501 38.8841 9.75374 38.5537C9.7573 38.4193 9.76082 38.2861 9.75166 38.1592C9.76825 37.3206 9.7609 36.4805 9.75356 35.6404V35.6404V35.6403V35.6403V35.6403C9.74171 34.2857 9.72986 32.9309 9.81833 31.5823C10.0148 31.6776 10.2038 31.791 10.3928 31.9043C10.7184 32.0997 11.0439 32.2949 11.4067 32.3971ZM34.0015 28.3732H34.0015C33.412 28.3772 32.8226 28.3813 32.2334 28.3736C32.2325 30.5278 32.2325 32.6825 32.2325 34.8373C32.2325 36.9922 32.2325 39.1473 32.2317 41.3024C32.8884 41.3033 33.5446 41.3033 34.2009 41.3033C34.8571 41.3033 35.5134 41.3033 36.17 41.3042C37.125 41.306 38.09 41.1064 38.9434 40.6255C41.2134 39.4132 42.5284 36.4986 42.0934 33.7963C41.7334 30.9833 39.4767 28.5932 36.855 28.4027C35.9042 28.3601 34.9528 28.3666 34.0015 28.3732ZM34.7141 37.4632C34.719 35.3601 34.7239 33.257 34.7068 31.1539C34.9614 31.1624 35.2175 31.1576 35.4738 31.1527C36.0345 31.1421 36.5961 31.1314 37.1451 31.261C38.5134 31.6022 39.5684 32.9905 39.6651 34.5077C39.8101 36.0176 39.0051 37.5765 37.7251 38.1936C37.0313 38.5506 36.2687 38.5332 35.5141 38.516C35.2445 38.5099 34.9759 38.5038 34.7118 38.5148L34.7141 37.4632ZM46.5033 33.6021C46.5833 30.7982 48.9016 28.2792 51.5083 28.3754C54.0633 28.3464 56.3066 30.8109 56.4083 33.5603C56.4348 35.1399 56.4307 36.7201 56.4266 38.3002V38.3018V38.3018V38.3019C56.424 39.301 56.4214 40.3 56.4266 41.2987L56.4249 41.2987C55.5972 41.3005 54.771 41.3023 53.9449 41.2987C53.9408 40.8359 53.9412 40.3731 53.9416 39.9105C53.942 39.448 53.9424 38.9857 53.9383 38.5239C52.9637 38.5292 51.9898 38.5283 51.016 38.5273H51.0141H51.014H51.0139C50.3331 38.5267 49.6523 38.526 48.9716 38.5275C48.9691 38.8725 48.9703 39.2177 48.9715 39.563V39.5631V39.5631V39.5632V39.5639C48.9736 40.1465 48.9756 40.7293 48.9599 41.3114C48.4099 41.2969 47.8606 41.2985 47.3116 41.3001H47.3115H47.3115H47.3114C47.037 41.3009 46.7626 41.3017 46.4883 41.3005C46.4913 40.3674 46.489 39.434 46.4868 38.5006V38.4999C46.4828 36.8668 46.4789 35.2337 46.5033 33.6021ZM49.6066 32.0812C48.9302 32.877 48.9499 33.9509 48.9688 34.9799V34.9802C48.9736 35.2417 48.9783 35.5003 48.9715 35.7507C49.6335 35.7515 50.2958 35.751 50.9581 35.7506C51.9516 35.7499 52.9452 35.7493 53.9382 35.7526C53.9321 35.503 53.9374 35.2455 53.9427 34.9853C53.9635 33.9794 53.9851 32.9319 53.3482 32.1374C52.4599 30.8671 50.5266 30.838 49.6066 32.0812ZM60.7683 33.6312C60.8416 31.163 62.6133 28.8727 64.8616 28.4571C66.535 28.1069 68.3283 28.8237 69.4183 30.2429C70.2616 31.2538 70.6916 32.6221 70.6916 33.9796C70.695 35.6068 70.6939 37.2332 70.6927 38.8599C70.6922 39.6734 70.6916 40.4869 70.6916 41.3006C70.4105 41.3024 70.1292 41.3013 69.8479 41.3002C69.3051 41.2981 68.7622 41.296 68.22 41.3151C68.2021 39.9324 68.2049 38.549 68.2078 37.1658V37.1658C68.21 36.1018 68.2122 35.0378 68.205 33.9742C68.2183 32.9869 67.7333 32.0033 66.94 31.5133C66.1166 30.9761 65.0016 31.0559 64.2466 31.702C63.5933 32.2338 63.2283 33.1194 63.24 34.0014C63.2362 35.392 63.2367 36.7821 63.2373 38.1722V38.1723C63.2377 39.2149 63.2381 40.2576 63.2366 41.3006C62.9345 41.2993 62.6324 41.2999 62.3303 41.3005H62.3294C61.8001 41.3015 61.2709 41.3026 60.7416 41.2933C60.7593 40.0622 60.7561 38.8307 60.7528 37.5991C60.7493 36.2763 60.7459 34.9535 60.7683 33.6312ZM75.8284 30.8799C76.7867 29.2538 78.5567 28.2048 80.345 28.3899C82.3667 28.526 84.16 30.2029 84.72 32.299C84.9268 33.0067 84.9366 33.746 84.9464 34.4846V34.4848C84.952 34.9072 84.9576 35.3294 85 35.7454V41.286C84.365 41.3051 83.73 41.3027 83.0951 41.3003L83.0935 41.3003C82.8824 41.2995 82.6712 41.2987 82.46 41.2987C82.459 41.0007 82.4594 40.7024 82.4599 40.4041V40.4041V40.4031C82.4609 39.7736 82.4619 39.1438 82.4484 38.5148C81.4431 38.5313 80.4371 38.5291 79.431 38.5268H79.4309C78.784 38.5254 78.137 38.5239 77.49 38.5275C77.4892 38.9894 77.4892 39.4513 77.4892 39.9134C77.4892 40.3754 77.4892 40.8378 77.4884 41.3005H75.005C75.0042 40.1091 75.0042 38.9181 75.0042 37.7274C75.0042 36.5366 75.0042 35.3461 75.0034 34.1556C74.9917 33.0086 75.2434 31.8435 75.8284 30.8799ZM78.1118 32.0994C77.4486 32.8923 77.4684 33.9576 77.4873 34.9787C77.4921 35.2408 77.4969 35.4999 77.4901 35.7508C78.5947 35.752 79.6993 35.7516 80.8033 35.7512L80.8114 35.7512C81.3606 35.751 81.9096 35.7508 82.4585 35.7508C82.4511 35.4949 82.4563 35.2306 82.4615 34.9636V34.9635C82.4812 33.9621 82.5016 32.9215 81.8635 32.1321C80.9668 30.8599 79.0251 30.8436 78.1118 32.0994Z" fill="white"/>
</svg>
