<svg width="10" height="10" viewBox="0 0 10 10" fill="none" xmlns="http://www.w3.org/2000/svg">
<g id="teenyicons:discount-solid" clip-path="url(#clip0_254_3752)">
<path id="Vector" fill-rule="evenodd" clip-rule="evenodd" d="M4.29867 0.290612L3.54534 1.04328C3.48451 1.10413 3.40205 1.13841 3.31601 1.13861H2.13067C1.58267 1.13861 1.13867 1.58261 1.13867 2.13061V3.31595C1.1385 3.40219 1.10423 3.48487 1.04334 3.54594L0.290006 4.29861C0.104041 4.48464 -0.000427246 4.73691 -0.000427246 4.99995C-0.000427246 5.26298 0.104041 5.51525 0.290006 5.70128L1.04334 6.45461C1.10419 6.51544 1.13847 6.5979 1.13867 6.68394V7.86928C1.13867 8.41728 1.58267 8.86128 2.13067 8.86128H3.31601C3.40225 8.86145 3.48493 8.89572 3.54601 8.95661L4.29867 9.70994C4.4847 9.89591 4.73697 10.0004 5.00001 10.0004C5.26304 10.0004 5.51531 9.89591 5.70134 9.70994L6.45467 8.95661C6.5155 8.89576 6.59796 8.86148 6.68401 8.86128H7.86934C8.41734 8.86128 8.86134 8.41728 8.86134 7.86928V6.68394C8.86151 6.5977 8.89578 6.51502 8.95667 6.45394L9.71001 5.70128C9.89597 5.51525 10.0004 5.26298 10.0004 4.99995C10.0004 4.73691 9.89597 4.48464 9.71001 4.29861L8.95667 3.54528C8.89582 3.48445 8.86154 3.40199 8.86134 3.31595V2.13061C8.86134 1.58261 8.41734 1.13861 7.86934 1.13861H6.68401C6.59773 1.13859 6.515 1.1043 6.45401 1.04328L5.70134 0.289945C5.51531 0.10398 5.26304 -0.000488281 5.00001 -0.000488281C4.73697 -0.000488281 4.4847 0.104647 4.29867 0.290612ZM3.09734 6.43061L6.43067 3.09728L6.90267 3.56928L3.56934 6.90261L3.09734 6.43061ZM3.33334 3.33328V3.99995H4.00001V3.33328H3.33334ZM6.00001 6.66661H6.66667V5.99995H6.00001V6.66661Z" fill="#14FF00"/>
</g>
<defs>
<clipPath id="clip0_254_3752">
<rect width="10" height="10" fill="white"/>
</clipPath>
</defs>
</svg>
