<svg width="90" height="70" viewBox="0 0 90 70" fill="none" xmlns="http://www.w3.org/2000/svg">
<path d="M0 0H90V70H0V0Z" fill="white"/>
<path fill-rule="evenodd" clip-rule="evenodd" d="M12.3129 25.1212C13.2341 24.9577 14.1792 24.9767 15.1048 25.0773C15.9629 25.2704 16.8287 25.4859 17.6161 25.9182C19.2094 26.746 20.5657 28.0878 21.4695 29.7399C22.2189 31.2664 22.7344 32.9789 22.6572 34.7281C22.6789 38.3189 20.5896 41.7403 17.6302 43.2668C15.7117 44.2604 13.4799 44.3966 11.4298 43.8518C10.0431 43.3876 8.7053 42.6368 7.69491 41.4833C6.73237 40.511 6.00585 39.2722 5.5447 37.9387C4.94325 36.2985 4.88887 34.4747 5.14446 32.7468C5.61214 30.1804 7.06845 27.8273 9.12947 26.463C10.0887 25.7749 11.1916 25.3663 12.3129 25.1212ZM11.0817 29.7292C10.3878 29.8062 9.62975 30.0715 9.24582 30.7536C8.82167 31.407 8.77742 32.2242 8.73538 33.0006C8.73192 33.0644 8.72849 33.1278 8.72486 33.1909C8.71621 33.3867 8.70015 33.5823 8.68409 33.7779L8.68409 33.778C8.65169 34.1726 8.61928 34.5675 8.64764 34.965C8.66878 35.2334 8.68369 35.5027 8.69862 35.772L8.69862 35.772C8.7359 36.445 8.7732 37.1183 8.90758 37.7788C9.07398 38.6114 9.76244 39.2568 10.5216 39.4084C11.9364 39.6862 13.3777 39.6617 14.8104 39.6375C14.9416 39.6353 15.0727 39.633 15.2038 39.6311C15.79 39.5955 16.3762 39.5304 16.9559 39.4297C17.8238 39.3066 18.5906 38.5368 18.733 37.5893C18.9821 36.4276 19.0267 35.2291 18.9527 34.0436C18.8135 33.2833 18.3198 32.5976 17.6487 32.3193C17.3464 32.1602 17.011 32.1612 16.6821 32.1621C16.6241 32.1623 16.5663 32.1625 16.5089 32.1618C15.8618 32.1626 15.2148 32.1622 14.5677 32.1618H14.5677C13.4355 32.1612 12.3035 32.1605 11.172 32.1665C11.0419 32.1691 10.9205 32.1207 10.8001 32.0726C10.7555 32.0548 10.711 32.0371 10.6662 32.022C10.663 31.7567 10.6717 31.36 10.9991 31.3529C11.8515 31.3319 12.7047 31.3381 13.5579 31.3443C14.6815 31.3524 15.8051 31.3606 16.9265 31.3067C16.8047 30.6909 16.4599 30.0478 15.8661 29.8773C15.3299 29.7209 14.7752 29.6416 14.2238 29.5859C14.0665 29.5838 13.909 29.5805 13.7514 29.5772C12.8581 29.5587 11.9609 29.54 11.0817 29.7292ZM17.1549 34.9023C16.8688 34.8182 16.5262 34.9413 16.4262 35.2623C16.3634 35.6317 16.464 35.9877 16.564 36.3413C16.606 36.4898 16.6478 36.6379 16.6774 36.7865C16.7101 36.8072 16.759 36.838 16.808 36.8688C16.8569 36.8996 16.9058 36.9304 16.9384 36.9511C17.0505 36.88 17.1647 36.8161 17.2832 36.7604C17.296 36.4479 17.3652 36.1473 17.4343 35.8468C17.465 35.7135 17.4957 35.5802 17.5214 35.4458C17.4681 35.2244 17.3343 35.0219 17.1549 34.9023Z" fill="#01ACD7"/>
<path fill-rule="evenodd" clip-rule="evenodd" d="M33.8311 28.0724C32.9925 27.7147 32.0616 27.755 31.1828 27.8734C29.2816 28.1932 27.6132 29.773 27.0498 31.7756C26.7943 32.5691 26.7997 33.4253 26.8671 34.2532C27.0944 36.3707 28.5573 38.23 30.4138 38.8778C31.7298 39.3112 33.2481 39.3255 34.463 38.5497C34.6216 38.4542 34.7657 38.3361 34.9099 38.218L34.9099 38.218C35.0444 38.1078 35.179 37.9975 35.3255 37.9055L35.3277 38.0155C35.3457 38.8884 35.3661 39.8756 34.7577 40.5346C34.3499 41.077 33.7332 41.3624 33.11 41.4666C31.7625 41.7355 30.3377 41.2345 29.336 40.2302C29.1133 40.4772 28.88 40.7132 28.6468 40.9491C28.2693 41.3307 27.892 41.7123 27.5599 42.1405C28.6084 43.2206 29.9364 43.9998 31.3764 44.2071C32.7837 44.4001 34.2977 44.3066 35.5517 43.519C36.6154 42.8759 37.4528 41.7781 37.7813 40.4979C37.9852 39.86 37.9824 39.1785 37.9797 38.5118V38.5118L37.9792 38.3993C37.9782 34.869 37.9782 31.3398 37.9792 27.8094C37.4696 27.8026 36.96 27.8029 36.4503 27.8032C36.0823 27.8034 35.7142 27.8036 35.3461 27.8012C35.3464 27.8981 35.3469 27.9951 35.3474 28.092C35.349 28.4072 35.3506 28.7224 35.344 29.0376C34.8904 28.6337 34.389 28.2772 33.8311 28.0724ZM30.4911 31.1492C30.9273 30.7275 31.5059 30.5665 32.0703 30.4753C33.1938 30.2894 34.4576 30.8495 35.033 31.945C35.265 32.3888 35.2553 32.8905 35.2458 33.3875C35.2424 33.5614 35.2391 33.7348 35.2462 33.905C35.3408 34.9495 34.5936 35.8709 33.7376 36.2262C32.7033 36.6502 31.4276 36.6786 30.5248 35.8958C29.1719 34.7908 29.1447 32.2695 30.4911 31.1492ZM56.9385 27.8035C55.8139 27.7952 54.6414 28.1612 53.8312 29.0446C53.8241 28.9331 53.8174 28.8218 53.8108 28.7106L53.8106 28.7077L53.8105 28.7062C53.7989 28.5118 53.7873 28.3179 53.7735 28.1244C52.8882 28.1126 52.0029 28.1091 51.1176 28.1244C51.1188 31.0473 51.1187 33.9701 51.1185 36.8929V36.9138C51.1183 39.0989 51.1182 41.2841 51.1187 43.4693C51.7408 43.5129 52.3644 43.5091 52.9878 43.5053H52.9879H52.9879H52.988H52.988C53.2779 43.5035 53.5677 43.5018 53.8573 43.5048C53.8775 42.1507 53.873 40.7959 53.8685 39.441V39.4409V39.4408V39.4407V39.4406C53.867 38.9779 53.8654 38.5151 53.8649 38.0523C55.8182 39.7423 58.9277 39.5564 60.6842 37.6177C62.5962 35.5298 62.7061 31.8088 60.8647 29.6297C59.8957 28.417 58.4078 27.7467 56.9385 27.8035ZM53.9933 32.1996C54.2793 31.2628 55.1538 30.7038 56.0032 30.5203C56.8787 30.3272 57.8576 30.5677 58.5341 31.2166C59.6804 32.3512 59.6891 34.5315 58.608 35.7193C57.5237 36.8621 55.6051 36.8408 54.5273 35.698C54.0683 35.2562 53.828 34.5646 53.8682 33.9038C53.8772 33.7296 53.8729 33.5528 53.8686 33.3758V33.3758V33.3758V33.3758V33.3758C53.8589 32.9754 53.8492 32.5741 53.9933 32.1996ZM43.1759 27.9492C44.7214 27.6105 46.4126 27.8142 47.758 28.751C48.7814 29.4236 49.5602 30.5144 49.9082 31.7591C50.3857 33.3946 50.1714 35.2657 49.2774 36.6892C48.3888 38.1234 46.8716 39.0022 45.3054 39.1668C44.3407 39.2378 43.3434 39.2023 42.4309 38.8198C40.9191 38.2667 39.6509 36.9083 39.205 35.2302C38.7265 33.6575 38.9483 31.8574 39.7684 30.4646C40.5276 29.1619 41.8001 28.2725 43.1759 27.9492ZM43.823 30.5357C43.438 30.6553 43.078 30.8638 42.7626 31.1302C41.6707 32.067 41.4042 33.9192 42.1818 35.1734C43.0704 36.7686 45.3631 37.0836 46.566 35.7478C47.1544 35.1592 47.4339 34.2804 47.3556 33.4195C47.4219 31.5104 45.4773 29.972 43.823 30.5357ZM69.0698 27.8746C67.4873 27.6484 65.7732 27.8888 64.4605 28.9417C63.7024 29.5978 63.0542 30.5002 62.9259 31.5731C63.3037 31.6436 63.6785 31.7326 64.0534 31.8216L64.0534 31.8216C64.5417 31.9376 65.03 32.0535 65.5252 32.1286C65.7395 31.1918 66.4856 30.4469 67.3611 30.2929C67.9278 30.1863 68.5173 30.2183 69.0687 30.4007C69.5505 30.5712 69.917 31.1456 69.706 31.6928C69.313 32.083 68.7783 32.201 68.269 32.3133C68.2033 32.3278 68.138 32.3423 68.0735 32.3571C67.9855 32.3709 67.8972 32.3845 67.8087 32.3981L67.8084 32.3981C66.5155 32.597 65.1714 32.8037 64.0711 33.6172C62.7105 34.6535 62.7051 37.0919 63.9634 38.2241C65.0021 39.1964 66.4649 39.3077 67.7679 39.1194C68.6695 38.9359 69.5777 38.5107 70.153 37.7018C70.1563 37.9014 70.1563 38.1009 70.1563 38.3006C70.1563 38.5003 70.1563 38.7002 70.1596 38.9003C70.358 38.9 70.5565 38.8994 70.755 38.8987H70.7553C71.3849 38.8965 72.015 38.8943 72.6458 38.9051C72.6483 37.5672 72.648 36.2297 72.6476 34.8924V34.8924V34.8923C72.6473 33.8893 72.6471 32.8864 72.648 31.8834C72.6578 31.0698 72.3848 30.2775 71.9737 29.6072C71.3059 28.5864 70.1726 28.0712 69.0698 27.8746ZM65.6459 35.9799C65.5023 35.6092 65.7797 35.2433 66.057 35.0609C66.6163 34.7252 67.2459 34.6 67.8743 34.475C68.6315 34.3244 69.3871 34.1741 70.0159 33.6563C70.0099 33.819 70.0147 33.9892 70.0195 34.1618C70.0359 34.7446 70.0529 35.3543 69.6602 35.7892C68.9011 36.6135 67.745 36.7651 66.7237 36.694C66.2995 36.6668 65.7416 36.5069 65.6459 35.9799ZM73.7405 28.1162C73.4481 28.1168 73.1557 28.1174 72.8633 28.1174C73.6348 29.8728 74.4235 31.6193 75.2121 33.366C75.9521 35.0049 76.6922 36.6439 77.4182 38.2904C77.0613 39.1448 76.6734 39.9835 76.2854 40.8221C75.8753 41.7087 75.4652 42.5952 75.0918 43.5001C75.406 43.4986 75.7204 43.5013 76.0349 43.5039C76.7339 43.5098 77.4333 43.5156 78.1317 43.4764C80.4233 38.3627 82.7127 33.2489 85 28.1328C83.9722 28.1044 82.9455 28.1091 81.9188 28.1281C80.9334 30.4836 79.936 32.8344 78.9333 35.1805C78.6376 34.4853 78.3387 33.7916 78.0399 33.0979C77.5518 31.9648 77.0637 30.8319 76.5895 29.6925C76.5135 29.507 76.4298 29.3252 76.3461 29.1434C76.1926 28.8099 76.0392 28.4766 75.9336 28.121C75.2026 28.1133 74.4716 28.1148 73.7405 28.1162Z" fill="#010101"/>
</svg>
