<svg width="40" height="40" viewBox="0 0 40 40" fill="none" xmlns="http://www.w3.org/2000/svg">
<g id="vaadin:doctor" clip-path="url(#clip0_254_2834)">
<path id="Vector" d="M35 28.2501C32.5 23.5001 30 24.2501 27.25 24.0001C27.5 24.7501 27.5 25.5001 27.5 26.5001C31.5 27.5001 32.5 32.2501 32.5 35.0001V37.5001H27.5V35.0001H30C30 35.0001 30 28.7501 26.25 28.7501C22.5 28.7501 22.5 34.7501 22.5 35.0001H25V37.5001H20V35.0001C20 32.2501 21 27.2501 25 26.5001C25 25.0001 24.75 23.7501 24.5 23.2501C24 23.0001 23.5 22.5001 23.5 21.7501C23.5 20.2501 25.5 20.7501 27 18.0001C27 18.0001 29.25 12.2501 28.5 7.25007H26C26 6.75007 26.25 6.50007 26.25 6.00007C26.25 5.50007 26.25 5.25007 26 4.75007H28C27.25 2.25007 24.75 6.86646e-05 20 6.86646e-05C15.25 6.86646e-05 12.75 2.25007 11.75 5.00007H13.75C13.75 5.50007 13.5 5.75007 13.5 6.25007C13.5 6.75007 13.5 7.00007 13.75 7.50007H11.25C10.75 12.5001 12.75 18.2501 12.75 18.2501C14.25 20.7501 16.25 20.2501 16.25 22.0001C16.25 23.2501 15 23.7501 13.5 24.0001C13 24.5001 12.5 25.5001 12.5 27.5001V30.5001C14 31.0001 15 32.5001 15 34.0001C15 35.7501 13.25 37.5001 11.25 37.5001C9.25 37.5001 7.5 35.7501 7.5 33.7501C7.5 32.0001 8.5 30.7501 10 30.2501V27.2501C10 26.0001 10.25 25.0001 10.5 24.0001C8.75 24.2501 6.75 25.0001 5 28.2501C3.5 31.0001 2.75 40.0001 2.75 40.0001H37C37.25 40.0001 36.5 31.0001 35 28.2501ZM16.25 6.25007C16.25 4.25007 18 2.50007 20 2.50007C22 2.50007 23.75 4.25007 23.75 6.25007C23.75 8.25007 22 10.0001 20 10.0001C18 10.0001 16.25 8.25007 16.25 6.25007Z" fill="#F8F8F8"/>
<path id="Vector_2" d="M12.5 33.7501C12.5 34.0816 12.3683 34.3995 12.1339 34.634C11.8995 34.8684 11.5815 35.0001 11.25 35.0001C10.9185 35.0001 10.6005 34.8684 10.3661 34.634C10.1317 34.3995 10 34.0816 10 33.7501C10 33.4185 10.1317 33.1006 10.3661 32.8662C10.6005 32.6318 10.9185 32.5001 11.25 32.5001C11.5815 32.5001 11.8995 32.6318 12.1339 32.8662C12.3683 33.1006 12.5 33.4185 12.5 33.7501Z" fill="#F8F8F8"/>
</g>
<defs>
<clipPath id="clip0_254_2834">
<rect width="40" height="40" fill="white"/>
</clipPath>
</defs>
</svg>
