<svg width="35" height="40" viewBox="0 0 35 40" fill="none" xmlns="http://www.w3.org/2000/svg">
<g id="fontisto:doctor" clip-path="url(#clip0_254_2825)">
<path id="Vector" d="M10.8834 13.4967L11.1167 13.4767C11.2012 13.4674 11.282 13.437 11.3517 13.3884L11.35 13.3901C11.5734 14.1601 11.8467 14.9701 12.1884 15.8184C12.6267 16.9284 13.0584 17.8401 13.5417 18.7201L13.475 18.5867C13.435 19.1934 13.3867 19.8167 13.3234 20.4201C13.2956 20.776 13.2234 21.1271 13.1084 21.4651L13.1167 21.4351C13.0967 21.4434 13.0684 24.9017 13.0684 24.9017C13.069 25.9748 13.4306 27.0165 14.0951 27.859C14.7596 28.7016 15.6883 29.2961 16.7317 29.5467L16.765 29.5534C16.8114 29.4331 16.893 29.3296 16.9991 29.2564C17.1053 29.1832 17.2311 29.1439 17.36 29.1434H18.3167C18.4445 29.1451 18.5689 29.1845 18.6744 29.2565C18.7799 29.3285 18.8619 29.4301 18.91 29.5484L18.9117 29.5534C19.9639 29.3102 20.9032 28.7188 21.5775 27.8752C22.2517 27.0316 22.6214 25.985 22.6267 24.9051C22.6267 24.9051 22.5684 21.4601 22.5384 21.4367C22.439 21.1146 22.3709 20.7836 22.335 20.4484L22.3334 20.4234C22.275 19.8167 22.2367 19.2084 22.1817 18.5901C22.5934 17.8467 23.025 16.9367 23.405 15.9984L23.4684 15.8217C23.81 14.9734 24.075 14.1651 24.3067 13.3934C24.3752 13.442 24.4549 13.4724 24.5384 13.4817H24.54L24.775 13.5017C25.0584 13.5317 25.3084 13.2984 25.3317 12.9367L25.585 9.7184V9.71507C25.5849 9.58556 25.5376 9.46053 25.4521 9.36331C25.3665 9.26609 25.2485 9.20333 25.12 9.18674H25.0884C25.3103 7.51089 25.1728 5.80698 24.685 4.1884L24.7067 4.2734C24.2366 3.2296 23.5216 2.31461 22.6225 1.60607C21.7233 0.897538 20.6665 0.416371 19.5417 0.203404L19.4984 0.196737C18.953 0.0874009 18.3994 0.0249506 17.8434 0.0100708H17.8084C17.2268 0.020486 16.6475 0.0863396 16.0784 0.206737L16.1384 0.196737C15.0142 0.405405 13.9563 0.880334 13.0534 1.58177C12.1504 2.28321 11.4286 3.19074 10.9484 4.2284L10.93 4.2734C10.4502 5.88575 10.3223 7.58235 10.555 9.2484L10.5484 9.18674C10.4196 9.20067 10.3005 9.26158 10.2138 9.35782C10.127 9.45405 10.0788 9.57887 10.0784 9.7084V9.72007L10.3317 12.9384C10.355 13.3084 10.6084 13.5317 10.8817 13.5017L10.8834 13.4967Z" fill="#F8F8F8"/>
<path id="Vector_2" d="M35.6934 34.7967C35.5767 29.7301 35.07 28.5834 34.7967 27.8067C34.6884 27.4951 34.6 25.3884 31.12 24.0217C28.9867 23.1817 26.2334 23.1651 23.9034 22.1801V24.9201C23.9009 26.3247 23.4101 27.6849 22.5149 28.7674C21.6197 29.8498 20.3759 30.5873 18.9967 30.8534L18.9584 30.8601C18.9334 31.0079 18.8573 31.1423 18.7434 31.2397C18.6295 31.3372 18.4849 31.3916 18.335 31.3934H18.305V33.4601C18.305 34.4299 18.6903 35.36 19.376 36.0457C20.0618 36.7315 20.9919 37.1167 21.9617 37.1167C22.9315 37.1167 23.8616 36.7315 24.5474 36.0457C25.2331 35.36 25.6184 34.4299 25.6184 33.4601V32.0167C25.115 31.9429 24.6562 31.6872 24.3286 31.2979C24.0011 30.9087 23.8276 30.4129 23.8409 29.9043C23.8542 29.3958 24.0534 28.9097 24.4009 28.5381C24.7483 28.1665 25.2199 27.9352 25.7264 27.8878C26.233 27.8404 26.7393 27.9803 27.1496 28.281C27.56 28.5817 27.8459 29.0224 27.9533 29.5197C28.0607 30.0169 27.9821 30.5363 27.7324 30.9796C27.4828 31.4228 27.0793 31.7592 26.5984 31.9251L26.5834 31.9301V33.5384C26.5834 34.7646 26.0963 35.9405 25.2292 36.8076C24.3622 37.6746 23.1862 38.1617 21.96 38.1617C20.7338 38.1617 19.5579 37.6746 18.6908 36.8076C17.8238 35.9405 17.3367 34.7646 17.3367 33.5384V33.4551V33.4584V31.3734C17.194 31.3637 17.0587 31.306 16.9529 31.2099C16.847 31.1137 16.7767 30.9845 16.7534 30.8434V30.8401C15.3726 30.5767 14.1264 29.8415 13.2282 28.7602C12.33 27.679 11.8357 26.319 11.83 24.9134V22.1517C9.49003 23.1567 6.72003 23.1767 4.57503 24.0184C1.08503 25.3834 1.00503 27.4851 0.898362 27.8017C0.631696 28.5817 0.118362 29.7234 0.00169558 34.7934C-0.0183044 35.4601 0.00169567 36.4817 2.0117 37.3751C6.38836 39.0917 12.0267 39.6251 17.585 40.0084H18.1184C23.6884 39.6284 29.3184 39.0967 33.6917 37.3751C35.6934 36.4867 35.7117 35.4701 35.6934 34.7967ZM11.225 32.7301H9.14836V34.8151H7.66503V32.7367H5.58836V31.2534H7.66503V29.1767H9.14836V31.2534H11.225V32.7301Z" fill="#F8F8F8"/>
<path id="Vector_3" d="M27.0417 29.9417C27.0415 29.6443 26.9231 29.3575 26.7127 29.1473C26.5023 28.9371 26.217 28.8191 25.9196 28.8192C25.6222 28.8193 25.337 28.9376 25.1267 29.1479C24.9165 29.3583 24.7983 29.6435 24.7983 29.9409C24.7983 30.2383 24.9165 30.5236 25.1267 30.7339C25.337 30.9442 25.6222 31.0625 25.9196 31.0626C26.217 31.0627 26.5023 30.9447 26.7127 30.7345C26.9231 30.5243 27.0415 30.2391 27.0417 29.9417Z" fill="#F8F8F8"/>
</g>
<defs>
<clipPath id="clip0_254_2825">
<rect width="35" height="40" fill="white"/>
</clipPath>
</defs>
</svg>
