<svg width="90" height="70" viewBox="0 0 90 70" fill="none" xmlns="http://www.w3.org/2000/svg">
<path d="M0 0H90V70H0V0Z" fill="white"/>
<g clip-path="url(#clip0_6_193)">
<path d="M18.7009 18.0667C17.5933 17.775 16.4411 18.4587 15.8579 19.7527C15.7202 20.0593 15.6209 20.3889 15.5582 20.728C15.301 19.4082 14.4921 18.338 13.4644 18.0667C12.3567 17.775 11.2035 18.4587 10.6203 19.7527C10.4826 20.0593 10.3834 20.3889 10.3206 20.728C10.0625 19.4095 9.25451 18.338 8.22685 18.0667C7.1192 17.775 5.96599 18.4587 5.3828 19.7527C4.79759 21.0522 4.89074 22.7558 5.61162 23.9264C6.33149 25.0957 7.55153 25.5501 8.61766 25.036C9.46713 24.6264 10.1009 23.6579 10.3217 22.513C10.4168 23.0231 10.592 23.5087 10.8492 23.9264C11.569 25.0957 12.7891 25.5501 13.8552 25.036C14.7047 24.6264 15.3385 23.6579 15.5592 22.513C15.6543 23.0231 15.8295 23.5087 16.0867 23.9264C16.8065 25.0957 18.0266 25.5501 19.0927 25.036C20.1548 24.5233 20.8828 23.1356 20.8828 21.6232C20.8818 19.9155 19.9533 18.3976 18.7009 18.0667Z" fill="#FDAF27"/>
<path d="M10.059 35.6747C10.3344 37.2523 11.036 38.724 12.2642 39.1743C13.4306 39.6016 14.7306 38.9085 15.331 37.4937C15.6914 36.6446 15.6458 35.6842 15.6428 34.7442C15.6408 34.1108 15.6378 33.4787 15.6388 32.8453C15.6388 32.1481 15.6388 31.4508 15.6418 30.755C15.6448 29.8624 15.6256 28.9957 15.9577 28.1859C16.4164 27.0655 17.3286 26.3765 18.2813 26.4266C19.2432 26.4782 20.12 27.2866 20.5027 28.4708C20.7568 29.2575 20.7133 30.1107 20.7153 30.9476C20.7174 31.638 20.7174 32.3298 20.7174 33.0202C20.7174 34.5123 20.7872 36.0682 20.5705 37.5371C20.0694 40.9377 18.3107 43.8974 15.9273 45.2606C13.544 46.6238 10.7212 46.2589 8.57269 44.3193C7.51364 43.3629 6.64089 42.0405 6.0658 40.5118C5.4978 38.9994 5.15356 37.1099 5.37124 35.4171C5.53425 34.1556 6.27842 33.1247 7.21496 32.867C8.18795 32.5997 9.2065 33.202 9.71375 34.3454C9.89802 34.7592 9.97801 35.2095 10.059 35.6747Z" fill="#FDAF27"/>
<path d="M85 35.4402C85 40.0602 82.174 43.7483 78.606 43.7483C75.0627 43.7483 72.2847 40.0914 72.2847 35.4402C72.2847 30.7891 75.0627 27.1633 78.6293 27.1633C82.1753 27.1633 85 30.8203 85 35.4402ZM75.566 35.4714C75.566 37.974 76.8587 39.7699 78.6307 39.7699C80.3793 39.7699 81.6953 37.9414 81.6953 35.4714C81.6953 32.9688 80.378 31.1091 78.6307 31.1091C76.8587 31.1091 75.566 32.9376 75.566 35.4714Z" fill="black"/>
<path d="M33.855 38.5639C34.4564 39.0264 35.0346 39.4999 35.7554 39.4428C36.446 39.3886 37.0767 38.9044 37.4696 38.1434C37.8351 37.4367 37.827 36.6296 37.827 35.8117C37.827 34.4309 37.827 24.9752 37.827 24.2875C37.827 23.8114 37.8078 23.3407 37.9444 22.8863C38.3504 21.5394 39.6656 21.1053 40.4918 22.048C40.9342 22.5526 41.0598 23.2458 41.0598 23.985C41.0598 25.473 41.0922 35.7737 41.0517 36.7951C40.9788 38.6385 40.3531 40.4235 39.37 41.7108C38.3514 43.0455 36.9552 43.7793 35.5347 43.778C34.1709 43.7766 32.7302 43.0753 31.8372 41.6484C31.4788 41.0746 31.2702 40.3964 31.4109 39.645C31.5466 38.9206 31.983 38.3414 32.5267 38.1705C33.0208 38.0186 33.4359 38.2411 33.855 38.5639Z" fill="black"/>
<path d="M56.255 39.8929L56.2571 39.8917C55.761 39.4888 55.4542 38.7726 55.4451 37.9953V29.3291C55.4451 28.1328 54.7212 27.1643 53.8282 27.1643C53.0101 27.1643 52.3368 27.9782 52.2284 29.0348C51.4124 27.856 50.1772 27.1643 48.6949 27.1643C45.3669 27.1643 42.9481 30.6611 42.9481 35.4723C42.9481 40.285 45.3669 43.7805 48.6949 43.7805C48.7101 43.7805 48.7253 43.7792 48.7405 43.7792C48.7557 43.7792 48.7709 43.7805 48.7861 43.7805C50.3827 43.7805 51.7678 42.9748 52.7782 41.6062C53.2946 42.6818 54.1278 43.4699 55.1241 43.7113C55.2213 43.7344 55.3185 43.7466 55.4137 43.7466C55.4198 43.7466 55.4258 43.7452 55.4309 43.7439C55.438 43.7439 55.4461 43.7452 55.4532 43.7452C56.3097 43.7452 57.0032 42.8161 57.0032 41.6686C57.0043 40.9144 56.7036 40.2565 56.255 39.8929ZM49.2943 39.8346C47.4982 39.8346 46.2296 38.0062 46.2296 35.4723C46.2296 32.9372 47.5225 31.0776 49.2943 31.0776C51.0661 31.0776 52.2872 32.8735 52.2872 35.4723C52.2872 38.0699 51.0894 39.8346 49.2943 39.8346Z" fill="black"/>
<path d="M70.5219 29.3444C70.5219 28.0938 69.8516 27.1633 68.9414 27.1633C68.1031 27.1633 67.4328 27.9975 67.3609 29.1518C66.5469 27.9012 65.2773 27.1633 63.7453 27.1633C60.4173 27.1633 57.9985 30.6602 57.9985 35.4715C57.9985 40.2826 60.4173 43.7796 63.7453 43.7796C65.2398 43.7796 66.475 43.0864 67.289 41.8574V42.3729C67.2779 44.9623 66.0781 46.6985 64.2961 46.6985C63.5327 46.6985 62.8463 46.373 62.3117 45.7585C62.1122 45.5293 61.9361 45.2608 61.7872 44.9609C61.2931 43.9654 60.2898 43.6955 59.5466 44.3573C58.8035 45.0193 58.602 46.3635 59.0961 47.3591C59.4089 47.9885 59.7825 48.5555 60.2067 49.0438C61.3357 50.3432 62.7501 51.0297 64.2971 51.0297C67.8641 51.0297 70.4621 47.4541 70.5198 42.5045L70.5229 41.5672C70.5229 41.5672 70.5229 41.5672 70.5229 41.5658V29.3444H70.5219ZM64.3447 39.835C62.5486 39.835 61.28 38.0066 61.28 35.4727C61.28 32.939 62.5729 31.0779 64.3447 31.0779C66.1166 31.0779 67.3376 32.8738 67.3376 35.4727C67.3376 38.0703 66.1399 39.835 64.3447 39.835Z" fill="black"/>
</g>
<defs>
<clipPath id="clip0_6_193">
<rect width="80" height="33.3333" fill="white" transform="translate(5 18)"/>
</clipPath>
</defs>
</svg>
