<svg width="90" height="70" viewBox="0 0 90 70" fill="none" xmlns="http://www.w3.org/2000/svg">
<path d="M0 0H90V70H0V0Z" fill="#003D79"/>
<path fill-rule="evenodd" clip-rule="evenodd" d="M5.08433 40.0465C5.08433 38.7428 5.06325 37.6488 5 36.6733H7.1942L7.29708 38.3492H7.35864C7.85596 37.4636 8.76543 36.4163 10.4619 36.4163C11.786 36.4163 12.8203 37.2559 13.254 38.5119H13.2965C13.6488 37.8838 14.0612 37.4188 14.5366 37.0918C15.0957 36.6503 15.7372 36.4163 16.5647 36.4163C18.2398 36.4163 19.935 37.6957 19.935 41.3259V48.0029H17.453V41.7454C17.453 39.8611 16.8748 38.7428 15.655 38.7428C14.7847 38.7428 14.1428 39.4421 13.8757 40.2568C13.8128 40.5352 13.7509 40.8844 13.7509 41.2079V48.0029H11.2681V41.4419C11.2681 39.8611 10.7104 38.7428 9.53112 38.7428C8.57948 38.7428 7.93902 39.5817 7.71091 40.3711C7.60677 40.6521 7.56503 40.9769 7.56503 41.302V48.0029H5.08433V40.0465Z" fill="white"/>
<path fill-rule="evenodd" clip-rule="evenodd" d="M29.6052 45.2815C29.6052 46.3047 29.6465 47.3034 29.75 48.0033H27.4531L27.2883 46.7473H27.2254C26.6052 47.6323 25.5503 48.2594 24.2472 48.2594C22.2196 48.2594 21.0824 46.6089 21.0824 44.8862C21.0824 42.0236 23.3363 40.5824 27.0599 40.6054V40.4185C27.0599 39.6738 26.7907 38.4415 25.0121 38.4415C24.0187 38.4415 22.984 38.7907 22.3018 39.2785L21.8047 37.4188C22.5507 36.9059 23.8551 36.4167 25.4465 36.4167C28.6748 36.4167 29.6052 38.7215 29.6052 41.1865V45.2815ZM27.1219 42.4667C25.3226 42.4197 23.6061 42.8617 23.6061 44.5836C23.6061 45.6992 24.2472 46.2121 25.0542 46.2121C26.0666 46.2121 26.8124 45.4673 27.0393 44.6533C27.1008 44.444 27.1219 44.2104 27.1219 44.025V42.4667Z" fill="white"/>
<path fill-rule="evenodd" clip-rule="evenodd" d="M31.3643 40.0465C31.3643 38.7428 31.3415 37.6488 31.2812 36.6733H33.5134L33.6382 38.3715H33.6993C34.1343 37.4885 35.2305 36.4163 36.9057 36.4163C38.6645 36.4163 40.4847 37.6957 40.4847 41.2795V48.0029H37.9408V41.606C37.9408 39.9763 37.403 38.7428 36.0169 38.7428C35.0032 38.7428 34.3002 39.5573 34.0305 40.4185C33.9492 40.6751 33.9277 41.0248 33.9277 41.3482V48.0029H31.3643V40.0465Z" fill="white"/>
<path fill-rule="evenodd" clip-rule="evenodd" d="M51.5156 32.121V44.8149C51.5156 45.9779 51.5563 47.2365 51.5978 48.0034H49.3222L49.2204 46.2122H49.1782C48.578 47.4691 47.3557 48.2594 45.8886 48.2594C43.4902 48.2594 41.5865 45.9566 41.5865 42.4667C41.5654 38.6741 43.6752 36.4168 46.0952 36.4168C47.4807 36.4168 48.4745 37.0691 48.9288 37.9073H48.9708V32.121H51.5156ZM48.9708 41.3948C48.9708 41.1645 48.9496 40.884 48.9097 40.6521C48.6818 39.5353 47.8746 38.6274 46.7161 38.6274C45.0821 38.6274 44.1718 40.2568 44.1718 42.374C44.1718 44.4441 45.0821 45.9566 46.6955 45.9566C47.7293 45.9566 48.6401 45.1658 48.888 43.9331C48.9496 43.676 48.9708 43.3972 48.9708 43.0937V41.3948Z" fill="white"/>
<path fill-rule="evenodd" clip-rule="evenodd" d="M53.3134 48.0028H55.8809V36.674H53.3134V48.0028Z" fill="white"/>
<path fill-rule="evenodd" clip-rule="evenodd" d="M57.679 40.3254C57.679 38.7906 57.6575 37.6956 57.5957 36.6729H59.8095L59.8905 38.8359H59.9763C60.4719 37.2306 61.6512 36.6729 62.7264 36.6729C62.9741 36.6729 63.1187 36.6253 63.3262 36.6729V39.1863C63.1187 39.1399 62.8917 39.0934 62.5813 39.0934C61.3611 39.0934 60.533 39.9766 60.3058 41.2554C60.2655 41.5115 60.2238 41.8152 60.2238 42.1424V48.0032H57.679V40.3254Z" fill="white"/>
<path fill-rule="evenodd" clip-rule="evenodd" d="M64.5054 48.0028H67.0691V36.674H64.5054V48.0028Z" fill="white"/>
<path fill-rule="evenodd" clip-rule="evenodd" d="M63.8988 22.976C62.3588 23.979 58.7264 26.3221 57.3704 27.1947V27.1947C56.544 27.6682 54.63 27.875 53.5474 26.2332V26.2332C53.528 26.2036 52.1075 24.2073 52.0496 24.1321V24.1321C52.0089 24.079 51.0906 22.547 49.0443 22.4991V22.4991C48.742 22.4911 47.2389 22.4821 45.7722 23.4196V23.4196C43.8228 24.6723 39.2889 27.5876 39.2889 27.5876V27.5876C39.2877 27.5876 39.2877 27.5902 39.2854 27.5902V27.5902C37.4217 28.7895 35.9696 29.7233 35.9696 29.7233V29.7233L37.6852 32.0932C38.4878 33.2141 40.2977 34.0812 41.8672 33.0678V33.0678C41.8672 33.0678 47.6666 29.2906 47.6879 29.2796V29.2796C50.196 27.7325 52.1314 27.7325 53.4159 28.3082V28.3082C54.5688 28.8562 55.5719 30.2215 55.5719 30.2215V30.2215C55.5719 30.2215 56.8828 32.0487 57.1141 32.3683V32.3683C57.8599 33.4009 59.0945 32.9952 59.0945 32.9952V32.9952C59.0945 32.9952 59.552 32.9369 60.2415 32.4764V32.4764C60.2415 32.4764 65.859 28.813 65.8626 28.8118V28.8118C67.6463 27.6348 69.2823 27.415 70.1184 27.5015V27.5015C72.7372 27.7692 73.5507 29.8269 74.6862 31.2624V31.2624C75.3549 32.1068 75.9583 32.5862 76.881 32.562V32.562C77.4873 32.5476 78.1723 32.134 78.2733 32.0593V32.0593L85 27.6931C85 27.6931 84.3098 26.5239 82.8963 24.7048V24.7048C81.6312 23.0817 80.2874 23.8161 79.216 24.4129V24.4129C78.7659 24.6633 77.135 25.8835 75.5193 26.7347V26.7347C74.3681 27.341 72.7144 27.1587 71.8081 25.8991V25.8991C71.7539 25.8225 70.2877 23.826 70.1336 23.5804V23.5804C69.5418 22.7467 68.3871 22 66.9074 22V22C66.0076 22 64.9866 22.276 63.8988 22.976" fill="url(#paint0_linear_6_112)"/>
<defs>
<linearGradient id="paint0_linear_6_112" x1="35.9696" y1="33.5166" x2="85" y2="33.5166" gradientUnits="userSpaceOnUse">
<stop stop-color="#FFCA06"/>
<stop offset="0.330844" stop-color="#FBAA18"/>
<stop offset="0.694742" stop-color="#FFC907"/>
<stop offset="1" stop-color="#FAA619"/>
</linearGradient>
</defs>
</svg>
