<svg width="51" height="50" viewBox="0 0 51 50" fill="none" xmlns="http://www.w3.org/2000/svg">
<g id="wpf:audio-wave" clip-path="url(#clip0_254_3855)">
<path id="Vector" d="M36.9284 3.90579C36.5067 3.9962 36.1306 4.23286 35.8667 4.5739C35.6027 4.91495 35.4679 5.33837 35.4861 5.76925V42.3077C35.4433 42.5691 35.4578 42.8367 35.5287 43.092C35.5996 43.3472 35.7251 43.584 35.8966 43.7859C36.0681 43.9878 36.2815 44.15 36.5219 44.2612C36.7623 44.3724 37.0241 44.43 37.289 44.43C37.5539 44.43 37.8156 44.3724 38.0561 44.2612C38.2965 44.15 38.5098 43.9878 38.6813 43.7859C38.8528 43.584 38.9784 43.3472 39.0493 43.092C39.1202 42.8367 39.1347 42.5691 39.0919 42.3077V5.76925C39.098 5.51242 39.0498 5.25718 38.9506 5.02021C38.8514 4.78324 38.7033 4.56986 38.516 4.39401C38.3287 4.21815 38.1064 4.08378 37.8637 3.99965C37.621 3.91552 37.3632 3.88354 37.1073 3.90579C37.0477 3.90287 36.988 3.90287 36.9284 3.90579ZM13.8515 5.82887C13.4298 5.91927 13.0537 6.15594 12.7897 6.49698C12.5258 6.83802 12.391 7.26145 12.4092 7.69233V40.3846C12.3663 40.6461 12.3809 40.9137 12.4518 41.1689C12.5227 41.4241 12.6482 41.6609 12.8197 41.8628C12.9912 42.0647 13.2046 42.2269 13.445 42.3381C13.6854 42.4493 13.9472 42.507 14.2121 42.507C14.477 42.507 14.7387 42.4493 14.9791 42.3381C15.2196 42.2269 15.4329 42.0647 15.6044 41.8628C15.7759 41.6609 15.9015 41.4241 15.9724 41.1689C16.0432 40.9137 16.0578 40.6461 16.0149 40.3846V7.69233C16.0211 7.43549 15.9729 7.18026 15.8737 6.94329C15.7745 6.70632 15.6264 6.49294 15.4391 6.31708C15.2518 6.14123 15.0295 6.00685 14.7868 5.92273C14.544 5.8386 14.2863 5.80662 14.0303 5.82887C13.9708 5.82595 13.9111 5.82595 13.8515 5.82887ZM31.1592 11.5981C30.7375 11.6885 30.3614 11.9252 30.0974 12.2662C29.8335 12.6073 29.6987 13.0307 29.7169 13.4616V34.6154C29.6731 34.8772 29.6869 35.1453 29.7573 35.4012C29.8277 35.6571 29.953 35.8946 30.1245 36.0971C30.296 36.2997 30.5096 36.4624 30.7504 36.5741C30.9912 36.6857 31.2534 36.7435 31.5188 36.7435C31.7842 36.7435 32.0464 36.6857 32.2872 36.5741C32.528 36.4624 32.7416 36.2997 32.9131 36.0971C33.0846 35.8946 33.2099 35.6571 33.2803 35.4012C33.3507 35.1453 33.3645 34.8772 33.3207 34.6154V13.4616C33.3268 13.2051 33.2787 12.9502 33.1797 12.7135C33.0807 12.4768 32.933 12.2636 32.7461 12.0879C32.5593 11.9121 32.3375 11.7776 32.0952 11.6932C31.8529 11.6088 31.5956 11.5764 31.3399 11.5981C31.2791 11.5951 31.22 11.5951 31.1592 11.5981ZM8.08226 13.5212C7.66058 13.6116 7.28448 13.8482 7.02051 14.1893C6.75655 14.5303 6.62174 14.9538 6.63995 15.3846V32.6923C6.59619 32.9541 6.61 33.2223 6.6804 33.4782C6.7508 33.734 6.87611 33.9715 7.04761 34.1741C7.21911 34.3766 7.43269 34.5394 7.67347 34.651C7.91426 34.7626 8.17647 34.8205 8.44187 34.8205C8.70727 34.8205 8.96949 34.7626 9.21027 34.651C9.45106 34.5394 9.66463 34.3766 9.83613 34.1741C10.0076 33.9715 10.1329 33.734 10.2033 33.4782C10.2737 33.2223 10.2876 32.9541 10.2438 32.6923V15.3846C10.2498 15.1282 10.2018 14.8733 10.1028 14.6366C10.0038 14.3999 9.85607 14.1867 9.66921 14.0109C9.48235 13.8351 9.26056 13.7007 9.01828 13.6163C8.776 13.5319 8.51866 13.4995 8.26303 13.5212C8.20217 13.5181 8.14312 13.5181 8.08226 13.5212ZM19.6207 15.4443C19.199 15.5347 18.8229 15.7713 18.559 16.1124C18.295 16.4534 18.1602 16.8768 18.1784 17.3077V30.7693C18.1347 31.031 18.1485 31.2992 18.2189 31.5551C18.2893 31.811 18.4146 32.0485 18.5861 32.251C18.7576 32.4535 18.9711 32.6163 19.2119 32.7279C19.4527 32.8396 19.7149 32.8974 19.9803 32.8974C20.2457 32.8974 20.5079 32.8396 20.7487 32.7279C20.9895 32.6163 21.2031 32.4535 21.3746 32.251C21.5461 32.0485 21.6714 31.811 21.7418 31.5551C21.8122 31.2992 21.826 31.031 21.7823 30.7693V17.3077C21.7883 17.0512 21.7403 16.7964 21.6413 16.5597C21.5423 16.323 21.3945 16.1098 21.2077 15.934C21.0208 15.7582 20.799 15.6238 20.5567 15.5394C20.3145 15.455 20.0571 15.4226 19.8015 15.4443C19.7406 15.4412 19.6816 15.4412 19.6207 15.4443ZM42.6976 15.4443C42.276 15.5347 41.8999 15.7713 41.6359 16.1124C41.3719 16.4534 41.2371 16.8768 41.2553 17.3077V30.7693C41.2125 31.0307 41.227 31.2983 41.2979 31.5535C41.3688 31.8088 41.4944 32.0455 41.6659 32.2474C41.8374 32.4493 42.0507 32.6115 42.2912 32.7227C42.5316 32.834 42.7933 32.8916 43.0582 32.8916C43.3231 32.8916 43.5849 32.834 43.8253 32.7227C44.0657 32.6115 44.2791 32.4493 44.4506 32.2474C44.6221 32.0455 44.7476 31.8088 44.8185 31.5535C44.8894 31.2983 44.9039 31.0307 44.8611 30.7693V17.3077C44.8672 17.0509 44.8191 16.7956 44.7198 16.5587C44.6206 16.3217 44.4725 16.1083 44.2852 15.9325C44.0979 15.7566 43.8757 15.6222 43.6329 15.5381C43.3902 15.454 43.1324 15.422 42.8765 15.4443C42.8169 15.4413 42.7572 15.4413 42.6976 15.4443ZM2.31303 19.2904C1.89135 19.3808 1.51525 19.6175 1.25128 19.9585C0.987317 20.2996 0.85251 20.723 0.870718 21.1539V26.9231C0.827887 27.1845 0.842418 27.4521 0.913306 27.7074C0.984194 27.9626 1.10974 28.1994 1.28125 28.4013C1.45275 28.6032 1.66611 28.7654 1.90654 28.8766C2.14696 28.9878 2.4087 29.0454 2.6736 29.0454C2.93851 29.0454 3.20024 28.9878 3.44067 28.8766C3.68109 28.7654 3.89445 28.6032 4.06596 28.4013C4.23746 28.1994 4.36301 27.9626 4.4339 27.7074C4.50479 27.4521 4.51932 27.1845 4.47649 26.9231V21.1539C4.48259 20.897 4.43446 20.6418 4.33523 20.4048C4.236 20.1679 4.08791 19.9545 3.90062 19.7786C3.71333 19.6028 3.49106 19.4684 3.24832 19.3843C3.00557 19.3001 2.74781 19.2682 2.49187 19.2904C2.43165 19.2874 2.37132 19.2874 2.3111 19.2904H2.31303ZM25.3899 19.2904C24.9683 19.3808 24.5922 19.6175 24.3282 19.9585C24.0642 20.2996 23.9294 20.723 23.9476 21.1539V26.9231C23.9039 27.1849 23.9177 27.453 23.9881 27.7089C24.0585 27.9648 24.1838 28.2023 24.3553 28.4048C24.5268 28.6074 24.7404 28.7701 24.9812 28.8818C25.2219 28.9934 25.4842 29.0512 25.7496 29.0512C26.015 29.0512 26.2772 28.9934 26.518 28.8818C26.7588 28.7701 26.9723 28.6074 27.1438 28.4048C27.3153 28.2023 27.4406 27.9648 27.511 27.7089C27.5814 27.453 27.5952 27.1849 27.5515 26.9231V21.1539C27.5575 20.8974 27.5095 20.6425 27.4105 20.4058C27.3115 20.1691 27.1638 19.956 26.9769 19.7802C26.79 19.6044 26.5682 19.4699 26.326 19.3855C26.0837 19.3011 25.8264 19.2687 25.5707 19.2904C25.5099 19.2874 25.4508 19.2874 25.3899 19.2904ZM48.4669 19.2904C48.0452 19.3808 47.6691 19.6175 47.4051 19.9585C47.1412 20.2996 47.0064 20.723 47.0246 21.1539V26.9231C46.9817 27.1845 46.9963 27.4521 47.0672 27.7074C47.138 27.9626 47.2636 28.1994 47.4351 28.4013C47.6066 28.6032 47.82 28.7654 48.0604 28.8766C48.3008 28.9878 48.5625 29.0454 48.8274 29.0454C49.0924 29.0454 49.3541 28.9878 49.5945 28.8766C49.8349 28.7654 50.0483 28.6032 50.2198 28.4013C50.3913 28.1994 50.5169 27.9626 50.5877 27.7074C50.6586 27.4521 50.6732 27.1845 50.6303 26.9231V21.1539C50.6364 20.897 50.5883 20.6418 50.4891 20.4048C50.3898 20.1679 50.2418 19.9545 50.0545 19.7786C49.8672 19.6028 49.6449 19.4684 49.4022 19.3843C49.1594 19.3001 48.9017 19.2682 48.6457 19.2904C48.5861 19.2875 48.5265 19.2875 48.4669 19.2904Z" fill="#1379B1"/>
</g>
<defs>
<clipPath id="clip0_254_3855">
<rect width="50" height="50" fill="white" transform="translate(0.75)"/>
</clipPath>
</defs>
</svg>
