<svg width="60" height="61" viewBox="0 0 60 61" fill="none" xmlns="http://www.w3.org/2000/svg">
<g id="ri:mental-health-line">
<path id="Vector" d="M27.5001 5.5C32.3565 5.50032 37.0469 7.2672 40.6965 10.4711C44.3462 13.675 46.7057 18.0971 47.3351 22.9125L52.9601 31.76C53.3301 32.3425 53.2551 33.21 52.3976 33.58L47.5001 35.675V43C47.5001 44.3261 46.9733 45.5979 46.0356 46.5355C45.0979 47.4732 43.8261 48 42.5001 48H37.5026L37.5001 55.5H15.0001V46.265C15.0001 43.315 13.9101 40.5225 11.8876 38.0025C9.53182 35.0611 8.05501 31.5141 7.6273 27.77C7.19958 24.0259 7.83836 20.2372 9.47004 16.8403C11.1017 13.4434 13.6599 10.5766 16.8498 8.57029C20.0398 6.56393 23.7316 5.49962 27.5001 5.5ZM27.5001 10.5C24.674 10.4999 21.9054 11.2981 19.5132 12.8027C17.121 14.3074 15.2025 16.4572 13.9788 19.0045C12.755 21.5519 12.2757 24.3931 12.5962 27.2009C12.9166 30.0087 14.0238 32.6689 15.7901 34.875C18.5251 38.285 20.0001 42.1675 20.0001 46.265V50.5H32.5001L32.5051 43H42.5001V32.38L46.3751 30.72L42.5176 24.6575L42.3751 23.5525C41.9018 19.9423 40.1317 16.6274 37.3949 14.2258C34.658 11.8243 31.1412 10.5001 27.5001 10.5ZM26.1751 19.9075L27.5001 21.2325L28.8251 19.9075C29.65 19.1104 30.7551 18.6692 31.9022 18.6789C33.0493 18.6887 34.1467 19.1486 34.958 19.9596C35.7694 20.7705 36.2297 21.8678 36.2399 23.0149C36.2501 24.162 35.8093 25.2672 35.0126 26.0925L27.5001 33.6075L19.9876 26.0925C19.5698 25.6888 19.2366 25.206 19.0074 24.6722C18.7782 24.1384 18.6577 23.5643 18.6527 22.9834C18.6478 22.4025 18.7586 21.8264 18.9787 21.2888C19.1988 20.7511 19.5237 20.2627 19.9346 19.852C20.3455 19.4413 20.834 19.1166 21.3717 18.8967C21.9094 18.6768 22.4856 18.5662 23.0665 18.5714C23.6474 18.5766 24.2214 18.6974 24.7552 18.9268C25.2889 19.1562 25.7716 19.4896 26.1751 19.9075Z" fill="#1379B1"/>
</g>
</svg>
