<svg width="44" height="39" viewBox="0 0 44 39" fill="none" xmlns="http://www.w3.org/2000/svg">
<g id="Counseling" clip-path="url(#clip0_254_3839)">
<path id="Vector" d="M13.8558 28.6445C15.338 27.7603 16.3191 26.2393 16.3191 24.5134C16.3191 21.7885 13.8747 19.5715 10.8702 19.5715C7.86566 19.5715 5.42129 21.7885 5.42129 24.5134C5.42129 26.2392 6.4024 27.7603 7.88456 28.6445C3.75706 29.8026 0.75 33.2964 0.75 37.4154C0.75 37.577 0.820787 37.732 0.946788 37.8463C1.07279 37.9606 1.24368 38.0248 1.42188 38.0248H20.3184C20.4966 38.0248 20.6674 37.9606 20.7934 37.8463C20.9194 37.732 20.9902 37.577 20.9902 37.4154C20.9902 33.2965 17.9833 29.8027 13.8558 28.6445ZM6.76505 24.5134C6.76505 22.4604 8.60657 20.7902 10.8702 20.7902C13.1338 20.7902 14.9754 22.4604 14.9754 24.5134C14.9754 26.5661 13.1344 28.2362 10.8713 28.2367H10.8692C8.60598 28.2362 6.76505 26.5662 6.76505 24.5134ZM2.1192 36.806C2.46337 32.7008 6.25618 29.456 10.869 29.4555H10.8712C15.4841 29.456 19.2768 32.7008 19.621 36.806H2.1192ZM36.6155 28.6445C38.0977 27.7603 39.0788 26.2393 39.0788 24.5134C39.0788 21.7885 36.6344 19.5715 33.63 19.5715C30.6254 19.5715 28.1811 21.7885 28.1811 24.5134C28.1811 26.2392 29.1622 27.7603 30.6443 28.6445C26.5168 29.8026 23.5098 33.2964 23.5098 37.4154C23.5098 37.577 23.5806 37.732 23.7066 37.8463C23.8326 37.9606 24.0034 38.0248 24.1816 38.0248H43.0781C43.2563 38.0248 43.4272 37.9606 43.5532 37.8463C43.6792 37.732 43.75 37.577 43.75 37.4154C43.75 33.2965 40.743 29.8027 36.6155 28.6445ZM29.5248 24.5134C29.5248 22.4604 31.3663 20.7902 33.63 20.7902C35.8935 20.7902 37.735 22.4604 37.735 24.5134C37.735 26.5661 35.8941 28.2362 33.631 28.2367H33.6289C31.3657 28.2362 29.5248 26.5662 29.5248 24.5134ZM24.879 36.806C25.2231 32.7008 29.0159 29.456 33.6288 29.4555H33.631C38.2438 29.456 42.0366 32.7008 42.3807 36.806H24.879ZM5.72549 12.0436H7.41668L9.68946 16.7066C9.74216 16.8145 9.82828 16.9063 9.93737 16.9707C10.0465 17.0351 10.1738 17.0693 10.304 17.0693C10.4341 17.0693 10.5615 17.0351 10.6706 16.9707C10.7797 16.9063 10.8658 16.8145 10.9185 16.7066L13.1913 12.0436H31.3088L33.5817 16.7066C33.6344 16.8145 33.7205 16.9063 33.8296 16.9707C33.9387 17.0351 34.066 17.0693 34.1962 17.0693C34.3264 17.0693 34.4537 17.0351 34.5628 16.9707C34.6719 16.9063 34.758 16.8145 34.8107 16.7066L37.0836 12.0436H38.7747C40.0713 12.0436 41.1262 11.0868 41.1262 9.91082V3.10791C41.1262 1.93189 40.0713 0.975098 38.7747 0.975098H5.72549C4.42885 0.975098 3.37392 1.93189 3.37392 3.10791V9.9109C3.37392 11.0868 4.42885 12.0436 5.72549 12.0436ZM4.71767 3.10791C4.71767 2.60388 5.16976 2.19385 5.72549 2.19385H38.7746C39.3303 2.19385 39.7824 2.60388 39.7824 3.10791V9.9109C39.7824 10.4149 39.3303 10.825 38.7746 10.825H36.6459C36.5157 10.825 36.3884 10.8593 36.2793 10.9237C36.1702 10.9882 36.0841 11.0799 36.0314 11.1879L34.1961 14.9532L32.3609 11.188C32.3082 11.08 32.2221 10.9882 32.1131 10.9237C32.004 10.8593 31.8766 10.825 31.7464 10.825H12.7537C12.6235 10.825 12.4961 10.8593 12.387 10.9237C12.2779 10.9882 12.1918 11.08 12.1392 11.188L10.304 14.9532L8.46875 11.188C8.41611 11.08 8.33001 10.9882 8.22092 10.9237C8.11182 10.8593 7.98443 10.825 7.85424 10.825H5.72549C5.16976 10.825 4.71767 10.4149 4.71767 9.9109V3.10791ZM8.89648 6.50937C8.89648 6.34775 8.96727 6.19275 9.09327 6.07847C9.21927 5.96419 9.39017 5.89999 9.56836 5.89999H17.5088C17.687 5.89999 17.8579 5.96419 17.9839 6.07847C18.1099 6.19275 18.1807 6.34775 18.1807 6.50937C18.1807 6.67098 18.1099 6.82598 17.9839 6.94026C17.8579 7.05454 17.687 7.11874 17.5088 7.11874H9.56836C9.39017 7.11874 9.21927 7.05454 9.09327 6.94026C8.96727 6.82598 8.89648 6.67098 8.89648 6.50937ZM29.9698 6.50937C29.9698 6.34775 30.0406 6.19275 30.1666 6.07847C30.2926 5.96419 30.4635 5.89999 30.6417 5.89999H34.9316C35.1098 5.89999 35.2807 5.96419 35.4067 6.07847C35.5327 6.19275 35.6035 6.34775 35.6035 6.50937C35.6035 6.67098 35.5327 6.82598 35.4067 6.94026C35.2807 7.05454 35.1098 7.11874 34.9316 7.11874H30.6417C30.4635 7.11874 30.2926 7.05454 30.1666 6.94026C30.0406 6.82598 29.9698 6.67098 29.9698 6.50937ZM20.744 6.50937C20.744 6.34775 20.8148 6.19275 20.9408 6.07847C21.0668 5.96419 21.2377 5.89999 21.4159 5.89999H27.1437C27.3219 5.89999 27.4928 5.96419 27.6188 6.07847C27.7448 6.19275 27.8156 6.34775 27.8156 6.50937C27.8156 6.67098 27.7448 6.82598 27.6188 6.94026C27.4928 7.05454 27.3219 7.11874 27.1437 7.11874H21.4159C21.2377 7.11874 21.0668 7.05454 20.9408 6.94026C20.8148 6.82598 20.744 6.67098 20.744 6.50937Z" fill="#1379B1"/>
</g>
<defs>
<clipPath id="clip0_254_3839">
<rect width="43" height="39" fill="white" transform="translate(0.75)"/>
</clipPath>
</defs>
</svg>
