<svg width="30" height="30" viewBox="0 0 30 30" fill="none" xmlns="http://www.w3.org/2000/svg">
<path d="M11.6064 11C12.4128 10.024 13.6336 9.4 15 9.4C16.3664 9.4 17.5872 10.024 18.3936 11C18.9245 11.6437 19.2614 12.4251 19.3651 13.253C19.4688 14.081 19.3349 14.9213 18.979 15.676C18.6232 16.4307 18.0601 17.0687 17.3554 17.5156C16.6508 17.9624 15.8336 18.1997 14.9992 18.1997C14.1648 18.1997 13.3476 17.9624 12.6429 17.5156C11.9382 17.0687 11.3751 16.4307 11.0193 15.676C10.6635 14.9213 10.5296 14.081 10.6333 13.253C10.7369 12.4251 11.0739 11.6437 11.6048 11H11.6064ZM21 13.8C21 12.7888 20.7504 11.8352 20.3088 11H27C27.6365 11 28.2469 11.2529 28.697 11.7029C29.1471 12.153 29.4 12.7635 29.4 13.4V14.2C29.4 16.7392 27.4704 19.3392 24.096 20.2544C23.7492 19.6315 23.2423 19.1126 22.6276 18.7514C22.0129 18.3902 21.3129 18.1998 20.6 18.2H19.08C19.6864 17.6389 20.1701 16.9582 20.5006 16.201C20.831 15.4437 21.001 14.6262 21 13.8ZM20.6 19.8C20.9154 19.7992 21.2279 19.8607 21.5194 19.981C21.811 20.1013 22.0759 20.278 22.2989 20.5011C22.5219 20.7241 22.6987 20.989 22.819 21.2806C22.9393 21.5721 23.0008 21.8846 23 22.2V23C23 26.1536 20.024 29.4 15 29.4C9.97598 29.4 6.99998 26.1536 6.99998 23V22.2C6.99913 21.8846 7.06063 21.5721 7.18094 21.2806C7.30126 20.989 7.47801 20.7241 7.70104 20.5011C7.92407 20.278 8.18897 20.1013 8.48054 19.981C8.7721 19.8607 9.08457 19.7992 9.39998 19.8H20.6ZM0.599976 14.2C0.599976 16.7392 2.52958 19.3392 5.90398 20.2544C6.25075 19.6315 6.7577 19.1126 7.37236 18.7514C7.98702 18.3902 8.68704 18.1998 9.39998 18.2H10.92C10.3135 17.6389 9.82984 16.9582 9.4994 16.201C9.16896 15.4437 8.99891 14.6262 8.99998 13.8C8.99998 12.7888 9.24958 11.8352 9.69278 11H2.99998C2.36346 11 1.75301 11.2529 1.30292 11.7029C0.852832 12.153 0.599976 12.7635 0.599976 13.4V14.2ZM13 5C13 3.83305 12.5364 2.71389 11.7112 1.88873C10.8861 1.06357 9.76693 0.599998 8.59998 0.599998C7.43302 0.599998 6.31387 1.06357 5.48871 1.88873C4.66355 2.71389 4.19998 3.83305 4.19998 5C4.19998 6.16695 4.66355 7.28611 5.48871 8.11127C6.31387 8.93643 7.43302 9.4 8.59998 9.4C9.76693 9.4 10.8861 8.93643 11.7112 8.11127C12.5364 7.28611 13 6.16695 13 5ZM25.8 5C25.8 3.83305 25.3364 2.71389 24.5112 1.88873C23.6861 1.06357 22.5669 0.599998 21.4 0.599998C20.233 0.599998 19.1139 1.06357 18.2887 1.88873C17.4635 2.71389 17 3.83305 17 5C17 6.16695 17.4635 7.28611 18.2887 8.11127C19.1139 8.93643 20.233 9.4 21.4 9.4C22.5669 9.4 23.6861 8.93643 24.5112 8.11127C25.3364 7.28611 25.8 6.16695 25.8 5Z" fill="#0360D9"/>
</svg>
