<svg width="34" height="32" viewBox="0 0 34 32" fill="none" xmlns="http://www.w3.org/2000/svg">
<g clip-path="url(#clip0_253_2098)">
<rect width="33.6296" height="32" transform="translate(0.0185547)" fill="white"/>
<path d="M10.7905 20.5884V23.5C10.7905 28.1527 14.7681 32 19.6577 32C24.5473 32 28.5249 28.1527 28.5249 23.5V22.4676C30.7707 22.0321 32.4659 20.1385 32.4659 17.875C32.4659 15.2904 30.2558 13.1875 27.5396 13.1875C24.8235 13.1875 22.6134 15.2904 22.6134 17.875C22.6134 20.1385 24.3086 22.0321 26.5544 22.4676V23.5C26.5544 27.1182 23.4602 30.125 19.6577 30.125C15.8553 30.125 12.761 27.1182 12.761 23.5V20.5896C16.782 19.8877 21.4224 15.1368 22.2257 10.6176C22.7525 7.64925 21.4509 5.273 18.6725 4.08444V2.8125C18.6725 1.26163 17.3466 0 15.7167 0C14.0869 0 12.761 1.26163 12.761 2.8125C12.761 4.36337 14.0869 5.625 15.7167 5.625H17.4659C19.733 6.42369 20.6858 8.03569 20.2822 10.3054C19.5904 14.201 14.9797 18.8125 11.7758 18.8125C8.18731 18.8125 3.19975 13.3901 3.16953 9.375C3.15607 7.58531 4.14151 6.30206 6.05912 5.625H7.83479C9.46464 5.625 10.7905 4.36337 10.7905 2.8125C10.7905 1.26163 9.46471 0 7.83479 0C6.20487 0 4.87906 1.26163 4.87906 2.8125V4.074C2.50903 5.08387 1.1957 6.97625 1.20082 9.375C1.21087 14.0759 6.3294 19.802 10.7905 20.5884ZM26.5544 16.9375H28.5249V18.8125H26.5544V16.9375Z" fill="#0360D9"/>
</g>
<defs>
<clipPath id="clip0_253_2098">
<rect width="33.6296" height="32" fill="white" transform="translate(0.0185547)"/>
</clipPath>
</defs>
</svg>
