<svg width="51" height="50" viewBox="0 0 51 50" fill="none" xmlns="http://www.w3.org/2000/svg">
<g id="healthicons:doctor-outline">
<path id="Vector" fill-rule="evenodd" clip-rule="evenodd" d="M35.6667 16.6667C35.6667 22.4198 31.0031 27.0833 25.25 27.0833C19.4969 27.0833 14.8333 22.4198 14.8333 16.6667C14.8333 10.9135 19.4969 6.25 25.25 6.25C31.0031 6.25 35.6667 10.9135 35.6667 16.6667ZM33.5833 16.6667C33.5833 18.8768 32.7054 20.9964 31.1426 22.5592C29.5798 24.122 27.4601 25 25.25 25C23.0399 25 20.9202 24.122 19.3574 22.5592C17.7946 20.9964 16.9167 18.8768 16.9167 16.6667C16.9167 14.4565 17.7946 12.3369 19.3574 10.7741C20.9202 9.21131 23.0399 8.33333 25.25 8.33333C27.4601 8.33333 29.5798 9.21131 31.1426 10.7741C32.7054 12.3369 33.5833 14.4565 33.5833 16.6667ZM18.9104 30.0573L18.9219 30.0802L19 30.2333H31.2385C31.4771 29.7812 32.0177 29.0604 32.5417 29.1802C33.7187 29.4479 34.9042 29.8208 36.0427 30.2802L36.0771 30.2635L36.0885 30.2865L36.0969 30.3021C40.3833 32.0438 44 34.9958 44 38.0937V43.75H6.5V38.0937C6.5 34.1615 12.3292 30.4615 17.9583 29.1802C18.4177 29.076 18.6906 29.6177 18.9104 30.0573ZM34.3167 31.8573C33.8698 31.7009 33.4178 31.5595 32.9615 31.4333L32.4969 32.3167H17.7427L17.3115 31.4969L16.9365 31.6094C16.9292 31.6781 16.9229 31.7552 16.9198 31.8427C16.9062 32.2021 16.9333 32.6281 16.9927 33.0615C17.0536 33.5134 17.1512 33.9597 17.2844 34.3958C18.0161 34.4825 18.6937 34.825 19.1974 35.3628C19.7012 35.9006 19.9987 36.599 20.0374 37.3349C20.0761 38.0707 19.8536 38.7966 19.4091 39.3842C18.9646 39.9719 18.3267 40.3836 17.6081 40.5467C16.8895 40.7097 16.1364 40.6136 15.4819 40.2752C14.8273 39.9369 14.3133 39.3782 14.0307 38.6977C13.7481 38.0172 13.715 37.2587 13.9374 36.5562C14.1597 35.8537 14.6232 35.2523 15.2458 34.8583L15.2375 34.8292C15.0987 34.3421 14.9953 33.8457 14.9281 33.3437C14.8839 33.0231 14.8547 32.7005 14.8406 32.3771C13.5531 32.9271 12.3521 33.5917 11.3458 34.325C9.34375 35.7875 8.58333 37.1542 8.58333 38.0937V41.6667H41.9167V38.0937C41.9167 37.1531 41.1562 35.7865 39.1542 34.326C38.2812 33.6983 37.3514 33.1536 36.3771 32.699C36.3347 33.2635 36.2483 33.8239 36.1187 34.375H36.7083C36.9017 34.3751 37.0913 34.429 37.2558 34.5308C37.4202 34.6325 37.5531 34.778 37.6396 34.951L38.6813 37.0344C38.7542 37.1792 38.7917 37.3385 38.7917 37.5V39.5833C38.7917 39.8596 38.6819 40.1246 38.4866 40.3199C38.2912 40.5153 38.0263 40.625 37.75 40.625H35.6667V38.5417H36.7083V37.7458L36.0646 36.4583H33.1854L32.5417 37.7458V38.5417H33.5833V40.625H31.5C31.2237 40.625 30.9588 40.5153 30.7634 40.3199C30.5681 40.1246 30.4583 39.8596 30.4583 39.5833V37.5C30.4583 37.3385 30.4958 37.1792 30.5688 37.0344L31.6104 34.951C31.6969 34.778 31.8298 34.6325 31.9942 34.5308C32.1587 34.429 32.3483 34.3751 32.5417 34.375H33.9604C33.9729 34.3333 33.9865 34.2917 33.999 34.2458C34.0969 33.9115 34.1844 33.4958 34.2437 33.0625C34.3021 32.6333 34.3292 32.2135 34.3167 31.8573ZM17.9583 37.5C17.9583 38.0979 17.4771 38.5573 16.9167 38.5573C16.3562 38.5573 15.875 38.099 15.875 37.5C15.875 36.9021 16.3562 36.4427 16.9167 36.4427C17.4771 36.4427 17.9583 36.901 17.9583 37.5Z" fill="#1379B1"/>
</g>
</svg>
