<svg width="51" height="50" viewBox="0 0 51 50" fill="none" xmlns="http://www.w3.org/2000/svg">
<g id="tabler:mood-heart">
<g id="Group">
<path id="Vector" d="M44 25.0002C43.9998 21.2039 42.8474 17.4972 40.695 14.3701C38.5426 11.243 35.4917 8.84293 31.9457 7.48727C28.3998 6.13162 24.5259 5.88425 20.8363 6.77787C17.1468 7.67149 13.8154 9.66401 11.2827 12.4919C8.75004 15.3198 7.13544 18.8499 6.65241 22.6153C6.16939 26.3807 6.8407 30.204 8.57758 33.5796C10.3144 36.9552 13.0351 39.724 16.3796 41.52C19.7241 43.316 23.5351 44.0544 27.3083 43.6377M19 20.8335H19.0208M31.5 20.8335H31.5208" stroke="#1379B1" stroke-width="3.33333" stroke-linecap="round" stroke-linejoin="round"/>
<path id="Vector_2" d="M20.042 31.25C20.8047 31.9829 21.7141 32.5457 22.7103 32.9012C23.7065 33.2567 24.7668 33.3969 25.8212 33.3125M39.8212 44.7917L45.067 39.4167C45.718 38.7424 46.0826 37.8421 46.0841 36.9048C46.0857 35.9675 45.7241 35.066 45.0753 34.3896C44.7597 34.0599 44.3808 33.7972 43.9613 33.6175C43.5417 33.4378 43.0902 33.3447 42.6338 33.3437C42.1774 33.3427 41.7255 33.4339 41.3052 33.6119C40.8849 33.7898 40.5048 34.0508 40.1878 34.3792L39.8378 34.7375L39.4878 34.3792C39.1721 34.0496 38.7931 33.7871 38.3734 33.6076C37.9538 33.428 37.5023 33.3351 37.0458 33.3343C36.5894 33.3335 36.1376 33.4249 35.7173 33.6031C35.2971 33.7812 34.9172 34.0423 34.6003 34.3708C33.9499 35.045 33.5857 35.9449 33.5842 36.8817C33.5826 37.8185 33.9438 38.7195 34.592 39.3958L39.8212 44.7917Z" stroke="#1379B1" stroke-width="3.33333" stroke-linecap="round" stroke-linejoin="round"/>
</g>
</g>
</svg>
