<svg width="50" height="50" viewBox="0 0 50 50" fill="none" xmlns="http://www.w3.org/2000/svg">
<path d="M17.9165 33.6666C16.0972 35.3435 13.7 36.2519 11.2263 36.2016C8.75264 36.1512 6.39429 35.1462 4.64479 33.3966C2.89528 31.6471 1.8902 29.2888 1.83988 26.8151C1.78955 24.3415 2.69789 21.9442 4.37479 20.125L20.6248 3.87498C22.444 2.19807 24.8413 1.28974 27.3149 1.34006C29.7886 1.39038 32.147 2.39546 33.8965 4.14497C35.646 5.89448 36.6511 8.25282 36.7014 10.7265C36.7517 13.2002 35.8434 15.5974 34.1665 17.4166M12.4977 11.9979L21.3519 20.8521" stroke="#1379B1" stroke-width="2.5" stroke-linecap="round" stroke-linejoin="round"/>
<path d="M35.9375 30.75V40.125M31.25 35.4375H40.625M48.4375 32.3125C48.4446 35.951 47.2095 39.4829 44.9365 42.3242C42.6635 45.1654 39.4888 47.1457 35.9375 47.9375C32.3862 47.1457 29.2115 45.1654 26.9386 42.3242C24.6656 39.4829 23.4305 35.951 23.4375 32.3125V27.625C23.4375 26.7962 23.7668 26.0013 24.3528 25.4153C24.9389 24.8292 25.7337 24.5 26.5625 24.5H45.3125C46.1413 24.5 46.9362 24.8292 47.5222 25.4153C48.1083 26.0013 48.4375 26.7962 48.4375 27.625V32.3125Z" stroke="#1379B1" stroke-width="2.5" stroke-linecap="round" stroke-linejoin="round"/>
</svg>
