<svg width="53" height="50" viewBox="0 0 53 50" fill="none" xmlns="http://www.w3.org/2000/svg">
<g id="List" clip-path="url(#clip0_254_3871)">
<path id="Vector" d="M12.2813 8.15625V44.1353C12.2794 44.5404 12.4482 44.9297 12.7505 45.2178C13.0529 45.5058 13.4641 45.6691 13.8941 45.6719H39.106C39.5359 45.6691 39.9471 45.5058 40.2495 45.2178C40.5518 44.9297 40.7206 44.5404 40.7188 44.1353V8.15625C40.7188 7.95319 40.6332 7.75845 40.4808 7.61487C40.3284 7.47129 40.1218 7.39062 39.9063 7.39062C39.6908 7.39062 39.4841 7.47129 39.3317 7.61487C39.1794 7.75845 39.0938 7.95319 39.0938 8.15625V44.1406H13.9063V8.15625C13.9063 7.95319 13.8207 7.75845 13.6683 7.61487C13.5159 7.47129 13.3093 7.39062 13.0938 7.39062C12.8783 7.39062 12.6716 7.47129 12.5192 7.61487C12.3669 7.75845 12.2813 7.95319 12.2813 8.15625Z" fill="#1379B1"/>
<path id="Vector_2" d="M42.75 2.79688H39.5V4.32812H42.75C42.9654 4.32833 43.172 4.40906 43.3243 4.5526C43.4766 4.69613 43.5623 4.89076 43.5625 5.09375V47.2031C43.5622 47.4061 43.4765 47.6007 43.3242 47.7442C43.1719 47.8877 42.9654 47.9684 42.75 47.9688H10.25C10.0346 47.9684 9.82814 47.8877 9.67583 47.7442C9.52353 47.6007 9.43782 47.4061 9.4375 47.2031V5.09375C9.43772 4.89076 9.52339 4.69613 9.67571 4.5526C9.82804 4.40906 10.0346 4.32833 10.25 4.32812H13.5V2.79688H10.25C9.60377 2.79758 8.98422 3.0398 8.52726 3.4704C8.0703 3.90099 7.81325 4.4848 7.8125 5.09375V47.2031C7.81325 47.8121 8.0703 48.3959 8.52726 48.8265C8.98422 49.2571 9.60377 49.4993 10.25 49.5H42.75C43.3962 49.4993 44.0158 49.2571 44.4727 48.8265C44.9297 48.3959 45.1867 47.8121 45.1875 47.2031V5.09375C45.1867 4.4848 44.9297 3.90099 44.4727 3.4704C44.0158 3.0398 43.3962 2.79758 42.75 2.79688Z" fill="#1379B1"/>
<path id="Vector_3" d="M16.8366 6.625H36.1636C36.6412 6.60035 37.0892 6.39875 37.4098 6.06415C37.7304 5.72956 37.8977 5.2891 37.8751 4.8388V2.28659C37.8978 1.83622 37.7306 1.39566 37.41 1.06098C37.0894 0.726305 36.6413 0.524653 36.1636 0.5L16.8366 0.5C16.3589 0.524653 15.9108 0.726305 15.5902 1.06098C15.2696 1.39566 15.1024 1.83622 15.1251 2.28659V4.8388C15.1025 5.2891 15.2697 5.72956 15.5903 6.06415C15.911 6.39875 16.3589 6.60035 16.8366 6.625ZM16.7501 2.2862C16.7469 2.19436 16.7775 2.10431 16.8366 2.03125L36.1445 2.0278C36.1818 2.06042 36.2108 2.10066 36.2291 2.14545C36.2474 2.19024 36.2546 2.23839 36.2501 2.2862V4.83841C36.2538 4.8852 36.2468 4.93218 36.2296 4.97622C36.2125 5.02026 36.1855 5.06033 36.1506 5.09375L16.8557 5.0972C16.8183 5.06458 16.7894 5.02434 16.7711 4.97955C16.7528 4.93476 16.7456 4.88661 16.7501 4.8388V2.2862ZM35.8438 10.0703H24.4688C24.2534 10.0703 24.0467 10.151 23.8943 10.2946C23.7419 10.4381 23.6563 10.6329 23.6563 10.8359C23.6563 11.039 23.7419 11.2337 23.8943 11.3773C24.0467 11.5209 24.2534 11.6016 24.4688 11.6016H35.8438C36.0593 11.6016 36.266 11.5209 36.4184 11.3773C36.5707 11.2337 36.6563 11.039 36.6563 10.8359C36.6563 10.6329 36.5707 10.4381 36.4184 10.2946C36.266 10.151 36.0593 10.0703 35.8438 10.0703ZM35.8438 13.1328H24.4688C24.2534 13.1328 24.0467 13.2135 23.8943 13.3571C23.7419 13.5006 23.6563 13.6954 23.6563 13.8984C23.6563 14.1015 23.7419 14.2962 23.8943 14.4398C24.0467 14.5834 24.2534 14.6641 24.4688 14.6641H35.8438C36.0593 14.6641 36.266 14.5834 36.4184 14.4398C36.5707 14.2962 36.6563 14.1015 36.6563 13.8984C36.6563 13.6954 36.5707 13.5006 36.4184 13.3571C36.266 13.2135 36.0593 13.1328 35.8438 13.1328ZM35.8438 16.9609H24.4688C24.2534 16.9609 24.0467 17.0416 23.8943 17.1852C23.7419 17.3288 23.6563 17.5235 23.6563 17.7266C23.6563 17.9296 23.7419 18.1244 23.8943 18.2679C24.0467 18.4115 24.2534 18.4922 24.4688 18.4922H35.8438C36.0593 18.4922 36.266 18.4115 36.4184 18.2679C36.5707 18.1244 36.6563 17.9296 36.6563 17.7266C36.6563 17.5235 36.5707 17.3288 36.4184 17.1852C36.266 17.0416 36.0593 16.9609 35.8438 16.9609ZM35.8438 20.0234H24.4688C24.2534 20.0234 24.0467 20.1041 23.8943 20.2477C23.7419 20.3913 23.6563 20.586 23.6563 20.7891C23.6563 20.9921 23.7419 21.1869 23.8943 21.3304C24.0467 21.474 24.2534 21.5547 24.4688 21.5547H35.8438C36.0593 21.5547 36.266 21.474 36.4184 21.3304C36.5707 21.1869 36.6563 20.9921 36.6563 20.7891C36.6563 20.586 36.5707 20.3913 36.4184 20.2477C36.266 20.1041 36.0593 20.0234 35.8438 20.0234ZM35.8438 23.8516H24.4688C24.2534 23.8516 24.0467 23.9322 23.8943 24.0758C23.7419 24.2194 23.6563 24.4141 23.6563 24.6172C23.6563 24.8202 23.7419 25.015 23.8943 25.1586C24.0467 25.3021 24.2534 25.3828 24.4688 25.3828H35.8438C36.0593 25.3828 36.266 25.3021 36.4184 25.1586C36.5707 25.015 36.6563 24.8202 36.6563 24.6172C36.6563 24.4141 36.5707 24.2194 36.4184 24.0758C36.266 23.9322 36.0593 23.8516 35.8438 23.8516ZM35.8438 26.9141H24.4688C24.2534 26.9141 24.0467 26.9947 23.8943 27.1383C23.7419 27.2819 23.6563 27.4766 23.6563 27.6797C23.6563 27.8827 23.7419 28.0775 23.8943 28.2211C24.0467 28.3646 24.2534 28.4453 24.4688 28.4453H35.8438C36.0593 28.4453 36.266 28.3646 36.4184 28.2211C36.5707 28.0775 36.6563 27.8827 36.6563 27.6797C36.6563 27.4766 36.5707 27.2819 36.4184 27.1383C36.266 26.9947 36.0593 26.9141 35.8438 26.9141ZM35.8438 30.7422H24.4688C24.2534 30.7422 24.0467 30.8229 23.8943 30.9664C23.7419 31.11 23.6563 31.3048 23.6563 31.5078C23.6563 31.7109 23.7419 31.9056 23.8943 32.0492C24.0467 32.1928 24.2534 32.2734 24.4688 32.2734H35.8438C36.0593 32.2734 36.266 32.1928 36.4184 32.0492C36.5707 31.9056 36.6563 31.7109 36.6563 31.5078C36.6563 31.3048 36.5707 31.11 36.4184 30.9664C36.266 30.8229 36.0593 30.7422 35.8438 30.7422ZM35.8438 33.8047H24.4688C24.2534 33.8047 24.0467 33.8853 23.8943 34.0289C23.7419 34.1725 23.6563 34.3673 23.6563 34.5703C23.6563 34.7734 23.7419 34.9681 23.8943 35.1117C24.0467 35.2553 24.2534 35.3359 24.4688 35.3359H35.8438C36.0593 35.3359 36.266 35.2553 36.4184 35.1117C36.5707 34.9681 36.6563 34.7734 36.6563 34.5703C36.6563 34.3673 36.5707 34.1725 36.4184 34.0289C36.266 33.8853 36.0593 33.8047 35.8438 33.8047ZM36.6563 38.3984C36.6563 38.1954 36.5707 38.0006 36.4184 37.8571C36.266 37.7135 36.0593 37.6328 35.8438 37.6328H24.4688C24.2534 37.6328 24.0467 37.7135 23.8943 37.8571C23.7419 38.0006 23.6563 38.1954 23.6563 38.3984C23.6563 38.6015 23.7419 38.7962 23.8943 38.9398C24.0467 39.0834 24.2534 39.1641 24.4688 39.1641H35.8438C36.0593 39.1641 36.266 39.0834 36.4184 38.9398C36.5707 38.7962 36.6563 38.6015 36.6563 38.3984ZM24.4688 40.6953C24.2534 40.6953 24.0467 40.776 23.8943 40.9196C23.7419 41.0631 23.6563 41.2579 23.6563 41.4609C23.6563 41.664 23.7419 41.8587 23.8943 42.0023C24.0467 42.1459 24.2534 42.2266 24.4688 42.2266H29.7501C29.9656 42.2266 30.1722 42.1459 30.3246 42.0023C30.477 41.8587 30.5626 41.664 30.5626 41.4609C30.5626 41.2579 30.477 41.0631 30.3246 40.9196C30.1722 40.776 29.9656 40.6953 29.7501 40.6953H24.4688ZM17.6832 13.5156C17.8134 13.5157 17.9416 13.4861 18.057 13.4295L21.1872 11.8982C21.2818 11.8519 21.3659 11.7884 21.4346 11.7114C21.5033 11.6345 21.5552 11.5455 21.5873 11.4496C21.6195 11.3538 21.6313 11.2529 21.6221 11.1527C21.6129 11.0525 21.5829 10.955 21.5337 10.8658C21.4845 10.7766 21.4171 10.6973 21.3355 10.6326C21.2538 10.5679 21.1594 10.519 21.0576 10.4887C20.8521 10.4275 20.6293 10.4456 20.438 10.5393L17.9993 11.7321L17.4549 10.8379C17.4019 10.7506 17.3311 10.6741 17.2466 10.6127C17.1621 10.5512 17.0656 10.5061 16.9627 10.4798C16.8597 10.4535 16.7522 10.4465 16.6464 10.4594C16.5405 10.4722 16.4384 10.5045 16.3459 10.5546C16.2533 10.6046 16.1721 10.6713 16.1069 10.7509C16.0417 10.8305 15.9938 10.9214 15.9659 11.0184C15.9379 11.1155 15.9306 11.2168 15.9442 11.3165C15.9578 11.4162 15.9922 11.5124 16.0452 11.5996L16.978 13.1309C17.0491 13.2479 17.1518 13.3451 17.2757 13.4127C17.3995 13.4803 17.5401 13.5158 17.6832 13.5156ZM21.9399 17.7572C21.8908 17.6679 21.8235 17.5886 21.7418 17.5239C21.6601 17.4592 21.5657 17.4102 21.464 17.3798C21.3622 17.3495 21.2551 17.3383 21.1488 17.347C21.0425 17.3556 20.939 17.3839 20.8443 17.4303L18.4056 18.6231L17.8612 17.7289C17.754 17.5527 17.5769 17.4239 17.3689 17.3708C17.1609 17.3176 16.9391 17.3446 16.7521 17.4456C16.5652 17.5466 16.4285 17.7135 16.3721 17.9094C16.3157 18.1054 16.3443 18.3145 16.4515 18.4907L17.3842 20.0219C17.4884 20.1933 17.6589 20.3202 17.86 20.3758C18.0611 20.4315 18.2773 20.4116 18.4632 20.3205L21.5934 18.7892C21.7846 18.6957 21.9284 18.5344 21.9934 18.3408C22.0584 18.1473 22.0392 17.9374 21.9399 17.7572ZM21.9399 24.6478C21.8908 24.5585 21.8235 24.4793 21.7418 24.4145C21.6601 24.3498 21.5657 24.3008 21.464 24.2705C21.3622 24.2401 21.2551 24.2289 21.1488 24.2376C21.0425 24.2462 20.939 24.2745 20.8443 24.3209L18.4056 25.5141L17.8612 24.6195C17.754 24.4433 17.5769 24.3145 17.3689 24.2614C17.1609 24.2083 16.9391 24.2352 16.7521 24.3362C16.5652 24.4372 16.4285 24.6041 16.3721 24.8001C16.3157 24.9961 16.3443 25.2051 16.4515 25.3813L17.3842 26.9125C17.4885 27.0838 17.659 27.2105 17.8601 27.2662C18.0611 27.3218 18.2772 27.3021 18.4632 27.2111L21.5934 25.6799C21.7845 25.5862 21.9283 25.4249 21.9933 25.2314C22.0582 25.0379 22.0391 24.828 21.9399 24.6478ZM21.9399 31.5384C21.8405 31.3583 21.6693 31.2227 21.4639 31.1614C21.2585 31.1001 21.0356 31.1181 20.8443 31.2115L18.4056 32.4047L17.8612 31.5101C17.754 31.334 17.5769 31.2052 17.3689 31.152C17.1609 31.0989 16.9391 31.1258 16.7521 31.2268C16.5652 31.3278 16.4285 31.4947 16.3721 31.6907C16.3157 31.8867 16.3443 32.0958 16.4515 32.2719L17.3842 33.8032C17.4885 33.9744 17.659 34.1011 17.8601 34.1568C18.0611 34.2124 18.2772 34.1927 18.4632 34.1017L21.5934 32.5705C21.7845 32.4768 21.9283 32.3154 21.9933 32.1218C22.0583 31.9283 22.0391 31.7187 21.9399 31.5384ZM20.3718 38.0489C20.2963 37.9777 20.2067 37.9213 20.1081 37.8827C20.0095 37.8442 19.9037 37.8244 19.797 37.8244C19.6902 37.8244 19.5845 37.8442 19.4858 37.8827C19.3872 37.9213 19.2976 37.9777 19.2221 38.0489L18.3751 38.8471L17.5277 38.0485C17.3744 37.9091 17.1692 37.8319 16.9561 37.8337C16.7431 37.8354 16.5393 37.9159 16.3887 38.0579C16.238 38.1998 16.1526 38.3919 16.1507 38.5926C16.1489 38.7933 16.2308 38.9867 16.3788 39.1311L17.2262 39.9297L16.3788 40.7282C16.3012 40.7989 16.2393 40.8833 16.1967 40.9768C16.1541 41.0702 16.1317 41.1706 16.1308 41.2723C16.1298 41.3739 16.1504 41.4748 16.1912 41.5689C16.2321 41.6629 16.2924 41.7484 16.3687 41.8203C16.445 41.8922 16.5357 41.9491 16.6356 41.9875C16.7354 42.026 16.8424 42.0454 16.9503 42.0445C17.0582 42.0437 17.1648 42.0225 17.2639 41.9824C17.363 41.9423 17.4527 41.884 17.5277 41.8108L18.3751 41.0123L19.2225 41.8108C19.3758 41.9503 19.581 42.0275 19.794 42.0257C20.0071 42.024 20.2109 41.9435 20.3615 41.8015C20.5121 41.6595 20.5976 41.4675 20.5995 41.2668C20.6013 41.066 20.5194 40.8726 20.3714 40.7282L19.524 39.9297L20.3714 39.1311C20.5237 38.9876 20.6093 38.7929 20.6093 38.5898C20.6093 38.3868 20.5237 38.1921 20.3714 38.0485L20.3718 38.0489Z" fill="#1379B1"/>
</g>
<defs>
<clipPath id="clip0_254_3871">
<rect width="52" height="49" fill="white" transform="translate(0.5 0.5)"/>
</clipPath>
</defs>
</svg>
