<svg width="90" height="70" viewBox="0 0 90 70" fill="none" xmlns="http://www.w3.org/2000/svg">
<path d="M0 0H90V70H0V0Z" fill="#4C3494"/>
<path fill-rule="evenodd" clip-rule="evenodd" d="M76.1101 25.9904C73.8061 23.7748 70.6378 22.7393 67.5904 23.0559C66.829 23.1315 66.0736 23.279 65.3405 23.5152C62.6549 24.3565 60.2995 26.3601 58.8933 28.9875C57.0026 32.4523 56.7762 36.8994 58.2356 40.594C59.3194 43.3772 61.391 45.6871 63.9308 46.9121C66.8153 48.3033 70.2288 48.3453 73.139 47.0186C74.6224 46.3388 75.9678 45.3006 77.0464 44C79.016 41.6574 80.0638 38.4605 79.9969 35.2954C79.9798 31.7848 78.565 28.2854 76.1101 25.9904ZM62.9156 30.3851C63.9985 28.627 65.7846 27.4011 67.7182 27.1397C69.2513 26.9128 70.859 27.2452 72.1872 28.12C73.4631 28.9445 74.4603 30.2376 75.0563 31.7119C76.2336 34.653 75.9695 38.298 74.192 40.8918C73.3491 42.1205 72.1658 43.0784 70.8222 43.5509C69.1347 44.1493 67.2346 44.0205 65.6363 43.1774C64.3758 42.5173 63.322 41.423 62.6232 40.1065C61.0609 37.1505 61.1509 33.216 62.9156 30.3851ZM26.593 24.3509C24.5137 23.1772 22.094 22.7851 19.7805 23.1194C17.5503 23.4321 15.4067 24.4853 13.7432 26.1379C12.0369 27.7998 10.839 30.0547 10.3211 32.4794C9.69603 35.3579 9.98413 38.4755 11.1803 41.1374C12.2787 43.6237 14.1874 45.675 16.4879 46.8337C18.7662 47.9877 21.3926 48.2641 23.8449 47.7029C26.2012 47.1689 28.3774 45.7609 29.9457 43.7741C31.4411 41.8974 32.3723 39.5137 32.6338 37.0497C32.8867 34.752 32.5738 32.3795 31.7137 30.261C30.6942 27.7317 28.8584 25.5983 26.593 24.3509ZM17.3436 28.4666C18.2611 27.7448 19.3492 27.2911 20.4699 27.1342C21.8118 26.9456 23.2086 27.1772 24.4219 27.8373C25.8504 28.5963 26.9968 29.925 27.6716 31.4861C28.4382 33.2264 28.6466 35.2329 28.3576 37.1301C28.0909 38.8611 27.3647 40.5315 26.2037 41.7639C25.2056 42.861 23.8783 43.592 22.478 43.8283C20.7631 44.1224 18.9428 43.7181 17.5057 42.6462C16.0214 41.5678 14.9796 39.8471 14.5294 37.9788C14.0853 36.1339 14.141 34.1395 14.7215 32.3376C15.2154 30.8026 16.1226 29.4133 17.3436 28.4666ZM33.6686 23.6767L33.6679 23.6767C33.6674 24.568 33.6676 25.4597 33.6677 26.3516C33.6678 26.7976 33.6679 27.2436 33.6679 27.6896C34.2235 27.691 34.7787 27.6909 35.334 27.6907C35.5192 27.6906 35.7044 27.6906 35.8896 27.6906C37.2636 31.1323 38.6358 34.5749 40.008 38.0174C41.0045 40.5172 42.0009 43.017 42.9979 45.5162C43.4618 46.6759 44.4367 47.5806 45.5711 47.8672C45.9838 47.9847 46.4095 47.98 46.8337 47.9753C46.9656 47.9738 47.0974 47.9724 47.2286 47.9746C48.5305 44.6354 49.8366 41.2982 51.1428 37.9611C52.6996 33.9836 54.2563 30.0062 55.8057 26.0258C55.8452 25.5415 55.8392 25.0525 55.8331 24.5635C55.8295 24.2672 55.8258 23.971 55.8323 23.6758H48.6314C48.6305 25.0147 48.6297 26.3526 48.6314 27.6906C48.9448 27.691 49.2583 27.6908 49.5718 27.6907C49.9897 27.6906 50.4076 27.6904 50.8256 27.6915C50.2523 29.2208 49.6804 30.7508 49.1085 32.2807C47.9996 35.2473 46.8907 38.2139 45.7718 41.1756C44.9013 38.9312 44.0311 36.6869 43.1609 34.4425C42.2883 32.1922 41.4158 29.9418 40.543 27.6915C40.9117 27.6901 41.2806 27.6903 41.6496 27.6906C42.0187 27.6908 42.3878 27.691 42.7569 27.6896V23.6767C39.7278 23.6748 36.6986 23.6758 33.6686 23.6767Z" fill="white"/>
</svg>
