<svg width="90" height="70" viewBox="0 0 90 70" fill="none" xmlns="http://www.w3.org/2000/svg">
<path d="M0 0H90V70H0V0Z" fill="white"/>
<path fill-rule="evenodd" clip-rule="evenodd" d="M33.6696 9H46.9887C50.7399 9 55.189 9.13275 58.1654 11.9909C60.1535 13.9003 61.1968 16.9424 60.9557 20.2081C60.1391 31.2823 54.0557 37.485 45.8979 37.485H39.3289C38.2111 37.485 37.47 38.2916 37.1547 40.4766L35.3215 53.1738C35.2027 53.9976 34.8747 54.483 34.2761 54.5417H26.0713C25.1609 54.5417 24.8374 53.7833 25.0754 52.1409L30.9837 11.4094C31.2203 9.77707 32.0404 9 33.6696 9" fill="#1B3D92"/>
<path fill-rule="evenodd" clip-rule="evenodd" d="M42.2354 21.7516H55.5411C62.6843 21.7516 65.374 25.6889 64.9588 31.4833C64.274 41.0351 58.9702 46.3168 51.9355 46.3168H48.3834C47.4194 46.3168 46.7707 47.0109 46.508 48.8971L44.9846 59.8471C44.8856 60.5584 44.5422 60.9761 44.0261 61.0269H35.6829C34.8978 61.0269 34.6186 60.3729 34.824 58.9564L39.919 23.8296C40.123 22.4217 40.8301 21.7516 42.2354 21.7516" fill="#00A2D3"/>
<path fill-rule="evenodd" clip-rule="evenodd" d="M36.7106 39.8595L39.0362 23.8294C39.2406 22.4218 39.948 21.7517 41.3533 21.7517H54.659C56.8617 21.7517 58.641 22.126 60.0356 22.8156C58.6987 32.6718 52.8443 38.148 45.1784 38.148H38.609C37.7446 38.148 37.0986 38.6292 36.7106 39.8595" fill="#1B2E7F"/>
</svg>
