<svg width="10" height="10" viewBox="0 0 10 10" fill="none" xmlns="http://www.w3.org/2000/svg">
<g id="ph:bag-fill">
<path id="Vector" d="M8.4375 2.5H6.875C6.875 2.00272 6.67746 1.52581 6.32583 1.17417C5.97419 0.822544 5.49728 0.625 5 0.625C4.50272 0.625 4.02581 0.822544 3.67417 1.17417C3.32254 1.52581 3.125 2.00272 3.125 2.5H1.5625C1.39674 2.5 1.23777 2.56585 1.12056 2.68306C1.00335 2.80027 0.9375 2.95924 0.9375 3.125V7.8125C0.9375 7.97826 1.00335 8.13723 1.12056 8.25444C1.23777 8.37165 1.39674 8.4375 1.5625 8.4375H8.4375C8.60326 8.4375 8.76223 8.37165 8.87944 8.25444C8.99665 8.13723 9.0625 7.97826 9.0625 7.8125V3.125C9.0625 2.95924 8.99665 2.80027 8.87944 2.68306C8.76223 2.56585 8.60326 2.5 8.4375 2.5ZM3.75 4.0625C3.75 4.14538 3.71708 4.22487 3.65847 4.28347C3.59987 4.34208 3.52038 4.375 3.4375 4.375C3.35462 4.375 3.27513 4.34208 3.21653 4.28347C3.15792 4.22487 3.125 4.14538 3.125 4.0625V3.4375C3.125 3.35462 3.15792 3.27513 3.21653 3.21653C3.27513 3.15792 3.35462 3.125 3.4375 3.125C3.52038 3.125 3.59987 3.15792 3.65847 3.21653C3.71708 3.27513 3.75 3.35462 3.75 3.4375V4.0625ZM5 1.25C5.33152 1.25 5.64946 1.3817 5.88388 1.61612C6.1183 1.85054 6.25 2.16848 6.25 2.5H3.75C3.75 2.16848 3.8817 1.85054 4.11612 1.61612C4.35054 1.3817 4.66848 1.25 5 1.25ZM6.875 4.0625C6.875 4.14538 6.84208 4.22487 6.78347 4.28347C6.72487 4.34208 6.64538 4.375 6.5625 4.375C6.47962 4.375 6.40013 4.34208 6.34153 4.28347C6.28292 4.22487 6.25 4.14538 6.25 4.0625V3.4375C6.25 3.35462 6.28292 3.27513 6.34153 3.21653C6.40013 3.15792 6.47962 3.125 6.5625 3.125C6.64538 3.125 6.72487 3.15792 6.78347 3.21653C6.84208 3.27513 6.875 3.35462 6.875 3.4375V4.0625Z" fill="#0360D9"/>
</g>
</svg>
