<svg width="90" height="70" viewBox="0 0 90 70" fill="none" xmlns="http://www.w3.org/2000/svg">
<path d="M0 0H90V70H0V0Z" fill="#F0592C"/>
<path fill-rule="evenodd" clip-rule="evenodd" d="M6.59447 31.0415C7.32463 31.8007 8.25739 32.1644 9.18924 32.5278C10.1278 32.8938 11.0655 33.2594 11.7943 34.0284C12.4569 34.6373 12.5311 35.7484 12.1547 36.5564C11.6671 37.4597 10.6414 37.8031 9.73238 37.8435C8.22968 37.8493 6.92575 36.9316 5.73048 36.0456C5.69753 36.0755 5.6623 36.1066 5.62576 36.1389C5.23902 36.4805 4.70621 36.951 5.19778 37.4626C7.15367 39.4163 10.5169 40.2272 12.7086 38.285C14.2749 36.9142 14.2087 34.1409 12.6954 32.7557C11.9666 31.9275 11.0058 31.5649 10.0443 31.202C9.24349 30.8998 8.44218 30.5974 7.77384 30.0257C6.66867 29.1946 7.18018 27.0966 8.43905 26.7878C9.71913 26.3203 11.0363 26.834 12.1865 27.4515C12.9578 27.9219 13.4534 26.4357 12.759 26.0519C11.2616 24.9697 9.19968 24.635 7.54061 25.4632C5.64832 26.3463 5.00696 29.512 6.59447 31.0415ZM14.9481 37.6761L14.9495 37.8227C14.9532 38.2486 14.9571 38.6795 15.0355 39.0988C15.327 39.5028 16.0506 39.5519 16.2917 39.067C16.4926 38.2901 16.4515 37.4461 16.4104 36.6041C16.3475 35.3134 16.2847 34.0274 17.0948 32.9952C17.9959 31.6937 20.3122 31.7976 20.8051 33.4512C20.9681 34.4265 20.9437 35.4179 20.9192 36.4096C20.8971 37.3046 20.875 38.2 20.9907 39.0843C21.3829 39.6846 22.4881 39.4104 22.3635 38.5995C22.3768 37.0412 22.3874 35.4828 22.3768 33.9245C22.39 32.0458 20.7203 30.447 19.0268 30.5163C18.0648 30.4153 17.2008 30.9232 16.4004 31.4311C16.3996 30.8403 16.4056 30.249 16.4117 29.6574V29.6574V29.6573V29.6572V29.6572V29.6571V29.657V29.6569C16.4248 28.3819 16.438 27.1059 16.3818 25.8325C16.4004 25.3506 16.0506 24.9091 15.5815 25.036C15.0196 24.9812 14.9534 25.694 14.956 26.1442C14.9514 27.8099 14.9533 29.4756 14.9552 31.1413C14.9576 33.3196 14.9601 35.4978 14.9481 37.6761ZM60.0397 39.728C60.3396 39.7236 60.6394 39.72 60.9395 39.7163L60.9398 39.7163L60.94 39.7163L60.9403 39.7163L60.9405 39.7163L60.9408 39.7163L60.9411 39.7163L60.9413 39.7163C61.2375 39.7127 61.5341 39.7092 61.8313 39.7049C61.9701 38.7361 62.1269 37.7719 62.2836 36.8079L62.2838 36.8069L62.2839 36.8059L62.2841 36.805L62.2842 36.8041L62.2844 36.8031L62.2845 36.8023L62.2846 36.8016C62.3759 36.2401 62.4672 35.6786 62.5549 35.1164C62.7845 35.1122 63.0145 35.1114 63.2445 35.1105H63.2447C63.9809 35.1078 64.718 35.1051 65.4489 34.9952C67.4737 34.6575 69.2468 32.5047 68.9128 30.2162C68.73 28.7964 67.4843 27.8036 66.2202 27.7401C65.4572 27.7088 64.6941 27.7149 63.9311 27.721C63.2895 27.7262 62.6479 27.7313 62.0062 27.7142C61.6289 29.9848 61.2592 32.2565 60.8894 34.5285C60.6074 36.2615 60.3253 37.9947 60.0397 39.728ZM63.2133 31.1442L63.2134 31.1437C63.3006 30.6156 63.3876 30.0879 63.4771 29.5612C63.7836 29.574 64.094 29.5637 64.405 29.5534C65.0785 29.5311 65.7549 29.5087 66.4004 29.7199C67.426 30.2163 67.2802 31.8497 66.5488 32.5769C65.8253 33.3561 64.8293 33.3139 63.8628 33.2729C63.5193 33.2583 63.1794 33.2439 62.8569 33.2666C62.9797 32.5603 63.0964 31.8531 63.213 31.1465L63.213 31.1461L63.2131 31.1456L63.2132 31.1451L63.2133 31.1447L63.2133 31.1442ZM24.6719 37.8897C23.6171 36.5391 23.3388 34.4699 24.1737 32.9116C24.7355 31.8149 25.7532 31.0617 26.8478 30.7154C28.9018 30.0632 31.226 31.5725 31.833 33.7687C32.1245 35.0125 31.9999 36.4179 31.3109 37.4856C29.9168 39.8809 26.3045 40.0916 24.6719 37.8897ZM30.3912 35.9388C31.1572 33.936 29.1695 31.7024 27.2957 32.2767C25.4405 32.5393 24.4308 35.2173 25.7215 36.7526C26.9141 38.5592 29.7684 38.0397 30.3912 35.9388ZM34.1492 30.6692C33.6563 30.4441 33.1474 31.0848 33.2402 31.61C33.2211 33.4509 33.2245 35.2918 33.2279 37.1332V37.1335C33.2312 38.8597 33.2344 40.5863 33.219 42.3136C33.2261 42.4435 33.2256 42.5775 33.2252 42.7128V42.7128V42.7128V42.7128V42.7129V42.713C33.2236 43.1305 33.2221 43.5593 33.4443 43.9124C33.8577 44.0942 34.6687 44.1634 34.674 43.4824C34.7463 42.3227 34.7286 41.159 34.7109 39.9958V39.9958V39.9957V39.9957V39.9956V39.9956C34.7026 39.454 34.6944 38.9124 34.6952 38.3715C36.6325 40.028 39.9056 39.7163 41.1486 37.2518C42.4181 35.0759 41.4163 31.9361 39.2431 30.9866C37.7934 30.1642 36.0336 30.6259 34.8065 31.7023C34.7558 31.601 34.72 31.4762 34.6835 31.3487C34.592 31.0296 34.4958 30.6939 34.1492 30.6692ZM36.4019 32.4642C37.6608 31.887 39.3013 32.3401 39.9321 33.7253C40.7749 35.1221 39.948 37.0816 38.5805 37.6328C37.2103 38.3456 35.4452 37.4452 34.9894 35.8926C34.4752 34.568 35.2544 33.0212 36.4019 32.4642ZM49.8813 38.6775C48.3124 39.7395 46.1338 39.8838 44.5516 38.767C42.4023 37.0182 42.4844 32.9491 44.6735 31.2811C46.4042 29.9363 49.2532 30.5769 50.1092 32.7731C50.4061 33.5667 50.5995 34.4959 50.3133 35.327C50.0681 35.5142 49.7682 35.5227 49.4778 35.5308C49.401 35.533 49.3249 35.5352 49.2506 35.5406C48.6899 35.5436 48.129 35.5407 47.5679 35.5378H47.5678H47.5676H47.5675H47.5673C46.5107 35.5323 45.4538 35.5269 44.3979 35.5608C44.4428 35.6817 44.4855 35.8074 44.5287 35.9348C44.7539 36.5976 44.994 37.3043 45.6276 37.6069C46.7938 38.2014 48.1348 37.8464 49.2744 37.3471C49.9502 36.9345 50.5465 38.311 49.8813 38.6775ZM47.9625 32.4643C47.3079 32.17 46.5552 32.1642 45.8794 32.3691C45.2943 32.5466 44.9933 33.1339 44.7133 33.6804C44.661 33.7825 44.6095 33.8831 44.5569 33.9794C46.0358 34.0054 47.5173 34.0025 48.9988 33.9794C48.9471 33.8734 48.898 33.7626 48.8484 33.6507C48.6389 33.1777 48.4212 32.686 47.9625 32.4643ZM53.2048 38.6025C54.7499 39.9098 57.037 39.7626 58.6723 38.7266C59.3984 38.3197 58.7544 36.8133 58.0203 37.3818C56.9443 37.8666 55.6881 38.1494 54.5723 37.6617C53.8638 37.3607 53.589 36.5787 53.3356 35.8577C53.2999 35.756 53.2646 35.6556 53.2286 35.558C54.3145 35.5264 55.4005 35.5326 56.4864 35.5387H56.4865C56.9907 35.5416 57.4949 35.5444 57.9991 35.5435C58.0828 35.5375 58.1693 35.5359 58.2568 35.5342L58.2568 35.5342C58.59 35.528 58.9367 35.5214 59.197 35.2723C59.4938 34.066 59.099 32.7414 58.386 31.7977C57.0927 30.3548 54.7923 30.1585 53.3346 31.4283C51.4026 33.1396 51.3151 36.8133 53.2048 38.6025ZM53.4088 33.9852C53.7772 32.9983 54.5352 32.0863 55.6112 32.2306C56.6819 32.0777 57.5565 32.8944 57.8295 33.9823C56.3559 34.0026 54.8824 33.9997 53.4088 33.9852ZM73.5853 32.8453C72.4854 32.0574 71.1285 32.7154 70.2274 33.5408L69.17 32.5278C70.0525 31.6823 71.1126 30.9897 72.3158 30.9089C73.3468 30.8425 74.5606 30.955 75.2841 31.8641C75.8248 32.4759 75.9122 33.4022 75.7877 34.2074C75.5878 35.5845 75.3568 36.9553 75.1258 38.3268L75.1257 38.3269L75.1257 38.327L75.1256 38.3273L75.1256 38.3277C75.0473 38.7923 74.969 39.2571 74.8919 39.7222C74.3194 39.7194 73.747 39.7165 73.1772 39.7165L73.3786 38.7122C72.2734 39.9214 70.4315 40.4956 69.0427 39.5202C67.7335 38.5621 68.0171 36.366 69.1037 35.3386C70.4421 33.9707 72.4642 34.0746 74.1101 34.6027C74.0914 34.4618 74.0848 34.3091 74.0782 34.1535V34.1533C74.0565 33.6461 74.0334 33.108 73.5853 32.8453ZM73.8609 36.1322C72.8299 35.682 71.5552 35.3761 70.564 36.0947C69.8908 36.5593 69.6364 37.832 70.4765 38.2649C71.9368 38.9575 73.4448 37.6329 73.8609 36.1322ZM77.3467 33.7555C77.1398 32.8983 76.933 32.0413 76.7232 31.1858H78.6606C78.8636 32.0688 79.057 32.9542 79.2505 33.8398C79.4763 34.8733 79.7021 35.907 79.9433 36.9373C80.6668 35.7381 81.3235 34.496 81.9803 33.2538C82.3461 32.562 82.7119 31.8703 83.0892 31.1858C83.7226 31.1858 84.356 31.1887 84.9921 31.1916L85 31.1916C84.1583 32.6725 83.3222 34.1572 82.4861 35.6419C81.0345 38.2196 79.5829 40.7974 78.1014 43.3555C77.7003 43.3497 77.2992 43.3465 76.8981 43.3433C76.6976 43.3417 76.4971 43.3401 76.2965 43.3382C76.569 42.867 76.8446 42.3978 77.1202 41.9286C77.6515 41.0241 78.1828 40.1195 78.6924 39.1998C78.2241 37.3918 77.7853 35.5731 77.3467 33.7555Z" fill="white"/>
</svg>
