<svg width="178" height="190" viewBox="0 0 178 190" fill="none" xmlns="http://www.w3.org/2000/svg">
<g id="Icon">
<path id="Divuarts" d="M32.8979 143.543L72.77 38.4113L138.904 110.933L43.0317 154.656C40.1332 155.978 36.7937 155.252 34.574 152.818C32.3542 150.384 31.6924 146.722 32.8979 143.543Z" fill="url(#paint0_radial_254_3957)" stroke="url(#paint1_linear_254_3957)"/>
<g id="Divuarts_2" filter="url(#filter0_b_254_3957)">
<path fill-rule="evenodd" clip-rule="evenodd" d="M96.5833 84.8206C115.124 105.152 134.448 116.924 139.746 111.115C143.877 106.585 138.255 92.6953 126.782 77.1551L125.888 75.9566C124.681 74.3546 123.414 72.7373 122.09 71.113L121.086 69.8936C119.397 67.8595 117.621 65.8178 115.767 63.7847C113.913 61.7516 112.051 59.804 110.196 57.9511L109.084 56.8508C107.602 55.399 106.128 54.0089 104.667 52.6852L103.574 51.7049C89.4022 39.1245 76.7362 32.9588 72.6043 37.4898C67.307 43.2987 78.0428 64.4894 96.5833 84.8206Z" fill="url(#paint2_radial_254_3957)"/>
<path d="M139.376 110.779C138.232 112.034 136.261 112.419 133.478 111.828C130.71 111.24 127.274 109.709 123.391 107.344C115.632 102.617 106.201 94.6254 96.9528 84.4837C87.7049 74.3426 80.4148 63.9989 76.1006 55.4834C73.9422 51.223 72.5407 47.4435 72.0013 44.3898C71.4577 41.3116 71.8112 39.1016 72.9737 37.8267C73.868 36.8461 75.259 36.3979 77.1591 36.5291C79.063 36.6606 81.4131 37.3728 84.1125 38.6336C89.5064 41.1529 96.1745 45.8052 103.241 52.0777C103.241 52.0781 103.241 52.0784 103.242 52.0788L104.331 53.0557C104.331 53.056 104.332 53.0563 104.332 53.0566C105.787 54.3752 107.257 55.7601 108.733 57.2067C108.733 57.2071 108.733 57.2075 108.734 57.2079L109.842 58.3048C109.843 58.3051 109.843 58.3054 109.843 58.3057C111.692 60.1528 113.549 62.0944 115.397 64.1216C117.246 66.1487 119.016 68.1842 120.701 70.212C120.701 70.2123 120.701 70.2127 120.702 70.2131L121.702 71.4289C121.702 71.4292 121.703 71.4295 121.703 71.4299C123.022 73.0486 124.286 74.6602 125.488 76.2563C125.489 76.2567 125.489 76.2571 125.489 76.2575L126.38 77.4521C126.38 77.4524 126.381 77.4528 126.381 77.4531C132.101 85.2019 136.348 92.5193 138.65 98.4448C139.801 101.409 140.456 104.002 140.577 106.112C140.699 108.228 140.281 109.787 139.376 110.779Z" stroke="url(#paint3_radial_254_3957)"/>
</g>
<path id="Divuarts_3" fill-rule="evenodd" clip-rule="evenodd" d="M173.343 28.9265L155.836 29.7291L165.879 49.6936L173.343 28.9265Z" fill="#FFDAFE"/>
<path id="Divuarts_4" fill-rule="evenodd" clip-rule="evenodd" d="M94.784 3.99375L85.2343 28.0706L103.068 27.3271L94.784 3.99375Z" fill="#5B72F2"/>
<circle id="Divuarts_5" cx="6.22768" cy="6.22768" r="6.22768" transform="matrix(0.673819 0.738896 -0.673819 0.738896 133.314 0)" fill="#E965E2"/>
<circle id="Divuarts_6" cx="6.22768" cy="6.22768" r="6.22768" transform="matrix(0.673819 0.738896 -0.673819 0.738896 131.559 81.833)" fill="#E965E2"/>
<path id="Divuarts_7" fill-rule="evenodd" clip-rule="evenodd" d="M112.946 39.7693C111.039 38.6335 110.347 36.1873 111.394 34.2766C112.462 32.3258 114.931 31.6783 116.878 32.8381L117.289 33.083L118.127 33.5956L118.923 34.0909L119.691 34.5773C125.069 38.0217 128.84 41.2036 131.323 44.9178L131.509 45.2026L131.594 45.3364L131.815 45.3014C139.762 44.0709 146.172 47.0177 150.606 53.3412L150.813 53.64C153.273 57.2578 155.387 65.511 156.497 70.4706C156.987 72.6583 155.541 74.7173 153.362 75.0323C151.219 75.342 149.179 73.8437 148.72 71.6886C147.811 67.422 146.193 60.8399 144.388 58.1863C141.96 54.6155 138.851 52.8492 134.538 53.1422L134.175 53.1716L134.18 53.2577C134.275 55.8319 133.675 58.4688 132.325 61.1166L132.159 61.4344L131.73 62.2249C126.417 71.8318 120.269 76.1188 114.157 74.4657C108.803 73.0175 105.294 66.985 106.064 61.6572C107.093 54.5287 111.987 50.3308 119.229 48.0797C119.396 48.0275 119.577 47.9745 119.767 47.9209L120.368 47.7588C120.577 47.7044 120.795 47.6498 121.018 47.5952L121.704 47.4319L122.413 47.2709L123.017 47.1387L123 47.1206C121.319 45.3945 118.983 43.5969 115.978 41.6512L115.628 41.426L114.915 40.9743L114.171 40.5111L113.382 40.0287L112.946 39.7693ZM126.159 54.8578L126.17 54.7859L124.664 55.0999L123.786 55.2929L122.971 55.4827L122.478 55.6054L122.035 55.7234L121.653 55.8355C116.958 57.2949 114.36 59.5239 113.856 63.0106C113.66 64.3676 114.787 66.3059 116.011 66.6369C117.414 67.0164 119.479 65.9342 121.944 62.6917L122.291 62.2251C122.349 62.145 122.408 62.0637 122.466 61.9812L122.82 61.4718C122.998 61.2099 123.178 60.937 123.36 60.653L123.726 60.0701C123.787 59.9704 123.849 59.8695 123.91 59.7674L124.283 59.139L124.659 58.4799C124.722 58.3675 124.786 58.2538 124.849 58.1387L125.231 57.4326C125.698 56.5564 126.008 55.7013 126.159 54.8578Z" fill="white"/>
</g>
<defs>
<filter id="filter0_b_254_3957" x="57.6605" y="22.4154" width="97.0285" height="103.775" filterUnits="userSpaceOnUse" color-interpolation-filters="sRGB">
<feFlood flood-opacity="0" result="BackgroundImageFix"/>
<feGaussianBlur in="BackgroundImageFix" stdDeviation="6.7957"/>
<feComposite in2="SourceAlpha" operator="in" result="effect1_backgroundBlur_254_3957"/>
<feBlend mode="normal" in="SourceGraphic" in2="effect1_backgroundBlur_254_3957" result="shape"/>
</filter>
<radialGradient id="paint0_radial_254_3957" cx="0" cy="0" r="1" gradientUnits="userSpaceOnUse" gradientTransform="translate(71.3943 50.5964) rotate(51.9899) scale(92.5868 97.3355)">
<stop stop-color="#F065E2"/>
<stop offset="1" stop-color="#3748FA"/>
</radialGradient>
<linearGradient id="paint1_linear_254_3957" x1="31.3082" y1="54.0644" x2="46.554" y2="136.201" gradientUnits="userSpaceOnUse">
<stop stop-color="white" stop-opacity="0.29535"/>
<stop offset="1" stop-color="white" stop-opacity="0.01"/>
</linearGradient>
<radialGradient id="paint2_radial_254_3957" cx="0" cy="0" r="1" gradientUnits="userSpaceOnUse" gradientTransform="translate(77.7335 74.3026) rotate(36.8125) scale(63.9118 65.8471)">
<stop stop-color="white" stop-opacity="0.801593"/>
<stop offset="1" stop-color="#889AFF" stop-opacity="0.301884"/>
</radialGradient>
<radialGradient id="paint3_radial_254_3957" cx="0" cy="0" r="1" gradientUnits="userSpaceOnUse" gradientTransform="translate(77.9892 43.4362) rotate(71.9121) scale(43.7139 61.4801)">
<stop stop-color="white" stop-opacity="0.973411"/>
<stop offset="1" stop-color="white" stop-opacity="0.01"/>
</radialGradient>
</defs>
</svg>
